<svg viewBox="0 0 534 523" class="svg-logo" style="enable-background:new 0 0 534 523" xml:space="preserve"><path class="shape-logo" d="m511.2 336.2-53.8-23.9c-2-.9-3.2-2.8-3.2-5v-33.4c0-2.5-3.2-3.5-4.7-1.6C430 298.1 354.8 398 324.3 438.5c-1 1.4-3.1 1.2-4-.2l-32.6-56.4c-1.3-2.3-4.8-1.3-4.8 1.3v64.7c0 3.5.9 6.9 2.7 10l24.8 42.9c.9 1.6 2.6 2.6 4.5 2.6h121c2.9 0 5.2-2.3 5.2-5.2v-55.3c0-2.8.9-5.6 2.6-7.9l27-35.9c1.4-1.8 1.5-4.3.4-6.3l-12.5-21.6c-.9-1.6.2-3.7 2.1-3.7h29c3 0 5.9-1.4 7.7-3.9l15.5-20.6c1.8-2.2.9-5.6-1.7-6.8zM347.4 169.6h-119c-1.2 0-2.2 1-2.2 2.2v179.3c0 1.2 1 2.2 2.2 2.2h33c1.2 0 2.2-1 2.2-2.2v-72c0-.8.6-1.4 1.4-1.4h49.6c1.1 0 2.1-.5 2.8-1.4l15.2-20.2c.5-.6.7-1.3.7-2.1v-11.5c0-1.2-1-2.2-2.2-2.2H265c-.8 0-1.4-.6-1.4-1.4v-30.7c0-.8.6-1.4 1.4-1.4h65.9c1.1 0 2.1-.5 2.8-1.4l15.2-20.2c.5-.6.7-1.3.7-2.1v-11.5c0-1-1-2-2.2-2zM191.5 398.2h-49.6c-1.1 0-2.1.5-2.8 1.4l-15.2 20.2c-.5.6-.7 1.3-.7 2.1v11.6c0 1.1.9 2 2 2h29.5c.8 0 1.4.6 1.4 1.4v19.7c0 .4-.2.8-.5 1.1-10.8 8.8-23.9 13.5-38 13.5-33.1 0-60.2-27-60.3-60.1 0-16.1 6.2-31.3 17.6-42.7 11.4-11.4 26.6-17.7 42.7-17.7 12.5 0 24.5 3.8 34.7 11 1.5 1.1 3.6.7 4.8-.8l18.2-24.1c.5-.7.8-1.5.8-2.3 0-1.1-.6-2.1-1.4-2.7-16.7-12-36.4-18.4-57-18.4-52.1 0-94.9 40.7-97.5 92.7-1.3 27 8.2 52.6 26.8 72.1 18.6 19.6 43.7 30.4 70.7 30.4s52.1-10.8 70.7-30.3l3.4-3.6c1.1-1.2 1.7-2.7 1.7-4.3v-70.2c-.1-1.1-1-2-2-2zM497.5 112.7c-11.6-11.8-26-16.8-38.6-21.3-2.7-1-5.3-1.9-7.8-2.8-10.7-4.1-17-8.6-19.1-13.8-2.1-5.2-.9-9.7.5-12.6 2.3-4.6 6.5-8.1 11.6-9.5 8.8-2.5 21.1.7 31.2 8 1.3 1 3.2.7 4.2-.6l18.8-25c.5-.6.7-1.4.6-2.2-.1-.8-.5-1.5-1.2-2-19.3-14.2-43.7-19.6-63.7-14-15.3 4.3-28.1 14.9-35 29-6.7 13.7-7.3 29-1.6 43.1 6.2 15.2 19.4 26.6 40.2 34.6 2.9 1.1 5.9 2.2 8.8 3.2 9.7 3.4 18.9 6.7 24.5 12.3 6.3 6.4 7.6 17.1 3 24.3-7.8 12.2-28.5 10.6-40.8 5.5l-.4-.2c-10.9-4.2-19.6-11.9-22.8-15-.6-.6-1.5-1-2.3-.9-.9 0-1.7.5-2.2 1.2l-18.9 25.1c-.9 1.2-.8 3 .4 4 6.9 6.3 18.2 14.9 32.4 20.3 10.4 4.3 21.8 6.5 33 6.5 23.1 0 42.5-9.7 53.2-26.6 13.9-22.1 10.6-51.8-8-70.6z"/></svg>