<?xml version="1.0" standalone="no"?>
<!DOCTYPE svg PUBLIC "-//W3C//DTD SVG 20010904//EN"
 "http://www.w3.org/TR/2001/REC-SVG-20010904/DTD/svg10.dtd">
<svg version="1.0" xmlns="http://www.w3.org/2000/svg"
 width="2000.000000pt" height="2000.000000pt" viewBox="0 0 2000.000000 2000.000000"
 preserveAspectRatio="xMidYMid meet">
<metadata>
Created by potrace 1.11, written by Peter Selinger 2001-2013
</metadata>
<g transform="translate(0.000000,2000.000000) scale(0.100000,-0.100000)"
fill="#000000" stroke="none">
<path d="M9797 17794 c-1 -1 -74 -4 -162 -8 -88 -3 -180 -8 -205 -10 -25 -3
-81 -7 -125 -10 -44 -4 -93 -8 -110 -10 -16 -2 -57 -7 -90 -10 -33 -4 -71 -8
-85 -11 -14 -2 -47 -7 -75 -10 -67 -8 -109 -14 -175 -25 -30 -5 -73 -12 -95
-15 -22 -4 -83 -15 -135 -25 -52 -11 -108 -21 -125 -24 -16 -3 -97 -22 -180
-41 -82 -20 -160 -38 -171 -41 -170 -34 -769 -231 -989 -324 -203 -85 -455
-201 -590 -270 -221 -113 -447 -238 -467 -258 -7 -7 -15 -12 -19 -12 -16 0
-415 -259 -515 -334 -23 -17 -52 -38 -64 -46 -73 -49 -437 -336 -470 -370 -3
-3 -21 -18 -40 -34 -127 -103 -547 -512 -684 -666 -32 -36 -72 -81 -89 -100
-18 -19 -84 -98 -148 -175 -496 -601 -903 -1277 -1191 -1975 -32 -80 -63 -154
-68 -165 -61 -147 -221 -632 -254 -775 -2 -8 -9 -35 -16 -60 -7 -25 -14 -52
-15 -60 -2 -8 -13 -53 -25 -100 -12 -47 -24 -96 -27 -110 -2 -14 -15 -77 -28
-140 -37 -181 -54 -271 -60 -320 -3 -25 -10 -70 -15 -100 -5 -30 -12 -77 -15
-105 -4 -27 -8 -60 -10 -71 -2 -12 -6 -48 -10 -80 -10 -84 -13 -102 -20 -114
-3 -5 -1 -10 6 -10 23 0 -10 -27 -51 -40 -21 -7 -37 -16 -35 -21 3 -4 -4 -10
-15 -14 -11 -3 -19 -9 -19 -13 2 -15 -14 -52 -23 -52 -5 0 -6 -4 -3 -10 3 -5
-2 -10 -11 -10 -10 0 -14 -3 -11 -7 4 -3 0 -14 -8 -23 -10 -11 -15 -41 -16
-98 -1 -45 -5 -85 -10 -88 -5 -3 -6 -11 -2 -17 11 -18 10 -96 -2 -90 -5 3 -5
0 1 -6 7 -8 9 -25 4 -46 -4 -19 -5 -36 -2 -39 5 -6 5 -71 -1 -116 -2 -14 1
-31 7 -38 6 -8 6 -16 0 -20 -11 -8 -11 -42 -1 -59 4 -6 3 -14 -3 -18 -6 -4 -7
-12 -3 -18 4 -6 6 -25 6 -42 -3 -69 -3 -91 -3 -105 1 -8 1 -28 0 -45 0 -16 1
-39 3 -50 2 -11 -1 -23 -7 -27 -7 -5 -7 -8 3 -8 11 0 11 -3 1 -15 -7 -8 -8
-15 -3 -15 13 0 11 -43 -2 -52 -6 -5 -5 -8 3 -8 6 0 12 -5 12 -11 0 -5 -6 -7
-12 -3 -10 5 -10 4 -1 -6 8 -9 9 -19 3 -31 -6 -10 -6 -20 -2 -23 4 -2 9 -62
10 -133 3 -180 12 -365 18 -375 3 -4 1 -8 -4 -8 -5 0 -9 -7 -9 -15 0 -8 3 -15
7 -15 3 0 6 -19 7 -42 5 -157 11 -267 17 -277 4 -6 1 -11 -6 -11 -8 0 -9 -3
-3 -8 6 -4 11 -18 11 -32 4 -95 13 -198 19 -212 5 -11 3 -18 -5 -18 -9 0 -10
-3 -1 -14 6 -7 12 -54 14 -105 1 -50 5 -91 9 -91 3 0 5 -25 5 -55 -1 -30 1
-55 5 -55 4 0 6 -18 5 -40 -2 -22 2 -41 8 -43 6 -2 4 -11 -5 -22 -8 -10 -10
-16 -4 -12 8 5 13 -6 16 -33 2 -23 -1 -40 -7 -40 -6 0 -6 -3 1 -8 15 -10 26
-54 11 -45 -7 4 -6 -1 2 -10 11 -14 11 -17 0 -17 -10 0 -10 -3 -3 -8 6 -4 15
-32 18 -62 4 -30 10 -77 13 -105 4 -27 7 -69 7 -92 1 -22 4 -39 8 -36 7 4 11
-35 12 -104 0 -13 3 -23 7 -23 3 0 9 -26 13 -57 4 -32 10 -76 13 -98 3 -22 6
-52 7 -67 1 -14 3 -25 4 -23 2 2 12 -5 22 -15 25 -25 135 -57 201 -59 18 -1
28 -8 32 -21 6 -25 58 -51 65 -32 2 7 9 9 14 6 7 -4 8 -2 4 4 -4 7 -3 12 3 12
19 0 21 -19 4 -29 -10 -5 -14 -13 -10 -17 4 -4 14 2 23 14 8 12 20 22 26 22 7
0 6 -6 -2 -15 -7 -8 -9 -15 -4 -15 5 0 2 -5 -6 -11 -13 -9 -13 -10 0 -6 8 2
14 10 12 16 -1 6 2 11 7 11 5 0 12 8 15 17 4 10 4 14 0 10 -4 -4 -13 -2 -21 4
-9 9 -13 8 -13 0 0 -8 -6 -8 -20 1 -16 11 -22 10 -33 -6 -11 -15 -17 -17 -35
-7 -12 6 -22 19 -22 29 0 10 3 13 8 7 4 -6 31 -10 60 -10 29 1 55 -2 58 -7 3
-4 14 -4 24 2 19 10 23 -2 8 -25 -4 -6 -3 -17 2 -25 5 -8 5 -19 -1 -26 -6 -8
-5 -14 5 -17 11 -4 13 -1 9 10 -5 12 -3 14 8 8 11 -7 12 -6 3 6 -6 8 -11 21
-11 30 0 23 46 19 53 -3 6 -19 24 -25 24 -7 0 5 4 8 10 4 5 -3 7 -13 4 -23 -5
-14 -4 -15 5 -2 6 8 11 11 11 6 0 -5 6 -3 14 3 11 9 17 1 35 -40 11 -29 21
-58 21 -65 0 -8 5 -14 10 -14 6 0 10 -4 10 -10 0 -5 17 -44 37 -86 20 -43 36
-84 36 -91 0 -7 4 -13 8 -13 5 0 5 -7 2 -17 -4 -10 -2 -14 4 -10 11 7 28 -22
18 -31 -3 -3 -5 0 -5 7 0 7 -4 10 -8 7 -5 -3 -24 4 -42 16 -22 13 -30 15 -22
5 16 -19 3 -28 -32 -21 -19 3 -25 1 -20 -7 5 -8 2 -9 -12 -1 -11 6 -27 7 -41
1 -14 -5 -25 -4 -29 3 -5 7 -3 8 6 3 9 -6 11 -4 5 4 -5 9 -10 10 -18 2 -18
-18 -34 -12 -56 22 -11 17 -21 28 -21 22 1 -5 7 -19 15 -29 23 -30 17 -44 -6
-16 -14 16 -19 19 -15 7 3 -9 1 -17 -3 -17 -5 0 -11 5 -13 12 -3 7 -11 -2 -18
-19 -8 -17 -18 -29 -22 -27 -4 3 -2 14 5 25 10 16 9 21 -3 29 -10 7 -18 5 -26
-5 -16 -22 -27 -18 -14 4 7 15 7 22 -2 27 -7 4 -10 4 -6 -1 10 -11 -10 -45
-27 -45 -7 0 -17 5 -21 12 -5 8 -2 9 10 5 9 -4 15 -3 11 2 -3 5 -2 11 2 14 5
2 1 2 -7 -1 -8 -3 -23 -4 -34 -4 -16 1 -17 0 -3 -11 9 -7 15 -21 13 -32 -3
-24 -20 -23 -24 1 -3 11 0 14 9 9 8 -5 10 -4 5 4 -4 6 -19 9 -33 7 -19 -4 -23
-2 -19 10 3 9 1 12 -4 9 -6 -3 -10 -13 -10 -21 0 -8 -5 -12 -10 -9 -6 4 -8 11
-5 16 4 5 1 9 -4 9 -6 0 -11 -5 -11 -11 0 -8 -5 -7 -15 1 -9 7 -18 10 -22 6
-3 -3 -1 -6 6 -6 7 0 9 -5 6 -10 -4 -7 -12 -7 -18 -2 -14 10 -27 10 -45 -1
-17 -11 -15 8 2 22 11 9 15 9 19 -1 3 -7 4 -3 4 9 -1 20 -3 21 -17 8 -14 -13
-19 -12 -35 3 -19 17 -19 17 -1 -5 20 -24 22 -22 -30 -38 -8 -3 -12 0 -9 5 7
12 -36 7 -56 -6 -8 -4 -9 -3 -5 5 5 8 0 10 -18 7 -32 -6 -34 2 -4 14 17 6 18
9 6 9 -9 1 -23 -8 -31 -19 -15 -22 -28 -17 -20 8 4 13 1 13 -11 -2 -9 -11 -19
-17 -22 -13 -4 4 -1 13 5 21 8 10 9 16 1 21 -6 4 -10 3 -9 -2 4 -20 -2 -24
-19 -12 -9 7 -14 10 -10 5 4 -4 1 -14 -5 -21 -9 -10 -17 -9 -37 2 -22 14 -23
14 -7 0 11 -9 14 -18 8 -21 -5 -4 -12 -2 -16 3 -4 7 -15 7 -31 1 -14 -6 -23
-6 -20 -1 3 5 -15 7 -40 6 -36 -2 -44 0 -40 12 3 8 1 11 -4 8 -6 -3 -10 -12
-10 -18 0 -12 -76 -15 -87 -3 -3 3 -13 0 -21 -7 -13 -10 -15 -9 -9 7 6 16 5
17 -7 7 -19 -16 -77 -20 -94 -7 -9 7 -15 3 -19 -12 -3 -12 -8 -20 -12 -18 -3
2 -7 -8 -8 -22 0 -14 -9 -31 -18 -38 -9 -7 -11 -14 -6 -15 7 -3 5 -18 -4 -44
-8 -22 -14 -48 -15 -58 0 -10 -4 -16 -9 -13 -4 3 -7 -6 -5 -19 1 -14 -1 -25
-5 -25 -4 0 -7 -8 -7 -17 -1 -10 -3 -31 -6 -48 -35 -183 -48 -300 -49 -425 0
-42 -5 -81 -12 -89 -9 -11 -9 -13 0 -8 9 5 12 -6 11 -42 0 -27 3 -55 7 -60 3
-6 0 -11 -7 -11 -9 0 -9 -3 -2 -8 6 -4 12 -20 12 -37 4 -69 25 -216 37 -255 6
-17 4 -21 -6 -15 -8 5 -5 -1 5 -13 11 -12 16 -22 12 -22 -4 0 -2 -8 3 -19 6
-10 12 -33 14 -52 2 -19 7 -41 10 -49 3 -8 16 -44 28 -80 12 -36 27 -70 32
-77 5 -7 29 -12 53 -11 25 0 48 -2 51 -6 3 -3 13 0 21 7 13 10 14 9 8 -1 -7
-12 0 -12 49 -2 6 1 12 1 15 0 18 -8 60 -5 60 4 0 7 3 7 8 1 10 -14 75 -14 84
-1 5 7 8 7 8 -2 0 -7 4 -11 8 -8 5 3 9 -1 9 -8 0 -15 -14 -15 -35 -3 -7 5 -12
3 -12 -3 0 -7 -5 -8 -12 -3 -17 10 -78 11 -72 1 3 -5 10 -6 15 -3 5 4 9 1 9
-5 0 -6 4 -9 9 -5 5 3 12 1 15 -4 4 -5 -1 -12 -9 -14 -11 -3 -10 -4 2 -3 10 1
17 8 16 14 -3 14 13 16 22 3 3 -5 -4 -16 -15 -24 -11 -7 -17 -17 -13 -20 8 -9
44 33 38 44 -3 4 4 7 15 6 24 -2 26 -12 5 -21 -16 -6 -21 -36 -5 -36 5 0 7 7
4 15 -7 17 11 21 19 5 3 -6 4 -5 3 2 -2 7 3 25 10 39 11 22 19 26 48 24 20 -2
36 2 36 7 0 7 4 7 12 1 7 -6 27 -9 45 -8 18 1 29 -3 26 -8 -3 -5 0 -7 8 -5 8
3 13 11 11 17 -1 7 8 5 23 -5 31 -20 31 -22 0 -19 -14 2 -23 -1 -20 -6 4 -5
-1 -6 -9 -3 -10 4 -16 1 -16 -7 0 -8 -6 -5 -14 6 -14 19 -15 19 -34 2 -15 -14
-21 -15 -25 -5 -4 10 -6 10 -6 1 -1 -7 -5 -13 -11 -13 -5 0 -9 6 -7 13 2 10
-25 14 -54 8 -9 -2 -6 -61 3 -61 5 0 8 8 7 18 -3 30 1 46 8 38 5 -4 9 -12 9
-17 1 -5 2 -13 3 -17 0 -5 12 -14 25 -20 22 -10 24 -9 20 12 -2 15 1 23 11 23
10 0 13 -6 10 -17 -3 -11 1 -20 11 -24 15 -6 15 -8 -2 -29 l-19 -22 23 19 c20
17 21 21 7 35 -13 15 -12 18 6 29 19 12 20 11 14 -9 -5 -16 -3 -20 6 -17 8 3
13 13 11 23 -4 23 17 9 28 -19 l9 -21 0 23 c1 12 5 22 10 22 6 0 8 -9 6 -20
-2 -12 0 -18 6 -15 5 4 7 10 5 14 -3 4 5 13 16 20 18 11 20 11 15 -3 -4 -10
-1 -19 8 -22 8 -4 13 -9 10 -13 -2 -4 2 -8 10 -8 12 0 12 4 -1 21 -20 28 -18
38 5 24 11 -7 17 -16 15 -20 -3 -4 0 -8 6 -8 7 0 9 8 5 19 -7 22 17 23 38 1
10 -11 8 -12 -8 -6 -15 6 -17 4 -8 -5 14 -14 34 -3 27 15 -3 7 2 13 11 13 9 0
14 -6 11 -12 -2 -7 0 -18 5 -26 8 -11 9 -10 7 5 -2 10 3 21 11 24 8 2 11 0 8
-5 -3 -5 -1 -15 5 -23 8 -12 9 -12 4 2 -3 10 -1 20 4 23 6 4 4 17 -5 34 l-14
28 34 -3 c32 -2 40 4 36 29 -3 18 17 5 27 -18 9 -20 16 -24 29 -17 10 5 26 8
35 7 9 -2 19 3 22 11 3 8 13 14 23 13 14 0 15 -2 3 -6 -8 -4 -21 -14 -27 -24
-8 -10 -23 -16 -38 -14 -14 1 -28 -2 -31 -7 -3 -4 -10 -6 -15 -3 -5 4 -9 1 -9
-5 0 -6 -5 -8 -11 -4 -8 5 -8 9 1 14 9 5 9 9 1 14 -6 4 -11 2 -11 -4 0 -6 -5
-8 -12 -4 -9 5 -9 2 1 -9 7 -10 9 -17 3 -17 -6 0 -12 6 -15 13 -2 7 -8 8 -13
3 -5 -5 -4 -11 4 -13 10 -4 10 -8 0 -21 -11 -15 -11 -15 4 -4 9 7 29 15 44 18
23 4 25 3 15 -9 -9 -12 -6 -18 13 -31 18 -11 27 -13 32 -4 4 7 3 8 -4 4 -7 -4
-12 -2 -12 3 0 6 -8 11 -17 11 -13 0 -14 3 -6 11 9 9 18 8 37 -5 33 -21 39
-20 31 5 -6 18 -5 19 14 7 11 -7 22 -17 24 -23 2 -5 3 -2 2 7 -2 10 1 21 6 24
5 3 9 0 9 -6 0 -6 4 -8 10 -5 5 3 10 -2 10 -11 0 -16 1 -16 15 2 15 19 15 19
30 0 15 -20 15 -20 15 0 1 17 2 17 20 -5 11 -13 20 -18 20 -13 0 6 -4 14 -10
17 -5 3 -10 11 -10 17 0 7 6 6 15 -2 12 -10 18 -10 31 1 15 12 16 11 10 -9 -9
-27 -2 -28 35 -1 16 11 29 16 29 10 0 -5 -5 -13 -10 -16 -5 -3 -10 -12 -10
-18 0 -7 5 -4 11 6 9 15 13 16 27 5 9 -7 13 -8 10 -3 -4 6 2 16 13 23 10 7 19
8 19 3 0 -6 -5 -13 -10 -16 -6 -3 -10 -11 -10 -18 0 -6 7 -2 16 9 15 18 15 18
9 -3 -4 -14 -2 -23 5 -23 6 0 9 4 6 8 -6 9 2 22 27 41 16 13 19 13 17 0 -5
-35 0 -43 16 -23 14 18 15 18 9 -6 -5 -24 -5 -24 10 3 9 16 14 31 11 34 -3 4
-1 11 4 18 7 8 1 11 -19 11 -22 0 -28 -4 -24 -15 4 -13 3 -13 -5 -2 -5 7 -15
10 -22 6 -9 -6 -9 -3 -1 13 14 26 28 35 35 23 7 -11 66 -8 86 4 8 5 11 4 6 -3
-4 -7 4 -10 26 -8 29 3 33 0 34 -21 2 -19 -1 -22 -12 -12 -8 6 -11 16 -7 23 3
6 -3 3 -14 -7 -11 -10 -26 -17 -34 -15 -7 2 -13 -6 -14 -17 0 -12 -6 -19 -15
-17 -8 2 -12 0 -8 -4 4 -4 0 -14 -10 -22 -12 -10 -9 -9 10 2 17 10 29 12 33 6
8 -13 25 -13 25 1 0 5 -4 8 -9 4 -5 -3 -12 -1 -16 5 -3 5 -1 10 5 10 6 0 8 5
5 10 -11 17 7 11 21 -7 13 -17 14 -17 7 2 -6 18 -5 18 10 6 9 -7 14 -17 11
-22 -3 -5 0 -9 6 -9 7 0 9 7 6 15 -7 20 24 16 40 -4 12 -16 37 -6 31 12 -6 18
12 47 28 47 9 0 12 6 9 15 -8 20 5 19 28 -2 10 -9 18 -11 18 -5 0 6 9 9 20 7
11 -2 22 1 25 6 4 5 12 6 18 2 21 -13 98 -10 93 3 -3 7 3 18 12 25 9 8 14 9
10 5 -4 -5 -2 -16 5 -24 10 -13 9 -14 -2 -8 -9 6 -12 5 -9 -5 3 -8 16 -14 29
-15 49 -2 77 -35 42 -49 -11 -3 -13 1 -9 18 3 12 3 16 0 9 -5 -10 -10 -9 -21
5 -8 10 -12 12 -8 5 4 -7 2 -18 -4 -25 -7 -9 -7 -17 1 -27 8 -12 9 -12 4 2 -3
10 -1 20 4 23 10 6 14 -8 10 -35 -1 -11 3 -9 15 5 11 14 18 16 21 8 3 -7 10
-13 16 -13 6 0 6 6 -2 15 -15 17 -7 19 21 5 20 -11 26 -32 8 -28 -6 2 -14 -4
-16 -12 -3 -10 -2 -11 4 -4 4 6 16 10 25 8 10 -1 21 3 25 8 3 7 1 8 -5 4 -7
-4 -12 -1 -12 7 0 8 -10 18 -22 24 -15 6 -18 12 -10 17 7 4 24 -5 42 -23 17
-16 30 -26 30 -22 0 4 -5 12 -12 19 -7 7 -8 12 -3 12 16 0 31 -14 38 -33 4
-10 11 -16 16 -13 5 4 12 1 14 -4 3 -6 4 -5 2 2 -1 7 -8 12 -15 10 -15 -3 -8
20 7 25 6 2 14 -6 18 -18 7 -22 7 -22 23 4 20 32 28 34 35 6 4 -15 2 -19 -8
-15 -8 3 -17 1 -19 -3 -3 -5 5 -8 17 -7 16 1 21 7 19 21 -3 16 -1 18 9 8 7 -7
18 -13 24 -13 5 0 2 5 -8 11 -9 5 -17 15 -17 21 0 7 4 7 13 -1 8 -6 17 -8 20
-4 4 3 7 -2 7 -13 0 -16 2 -17 11 -4 9 12 10 11 6 -6 -3 -13 0 -21 7 -19 28 6
46 18 51 36 4 11 11 17 16 13 6 -3 8 -8 5 -11 -3 -3 -1 -14 5 -25 11 -19 11
-19 35 3 24 22 35 14 12 -9 -8 -8 -8 -12 -1 -12 6 0 14 7 17 15 4 12 10 14 25
5 26 -13 28 -13 35 6 4 10 2 13 -7 8 -6 -4 -9 -4 -5 1 4 4 3 14 -3 22 -17 19
-2 16 19 -5 9 -9 16 -29 15 -44 -1 -15 6 -32 15 -40 15 -11 15 -11 6 2 -6 8
-11 23 -11 33 0 13 14 3 48 -35 26 -29 45 -56 42 -61 -2 -4 -1 -6 4 -5 4 2
112 -101 238 -228 270 -270 316 -313 518 -482 308 -258 552 -437 857 -630 318
-202 762 -437 1070 -567 74 -32 149 -63 165 -70 147 -65 532 -198 760 -263
135 -39 405 -110 449 -118 12 -2 86 -17 166 -33 146 -30 172 -35 244 -46 21
-4 48 -9 60 -11 11 -2 41 -7 66 -10 25 -3 52 -7 60 -9 8 -2 42 -7 75 -11 33
-3 68 -8 77 -9 9 -2 48 -7 85 -10 37 -4 79 -8 93 -10 24 -4 112 -11 230 -20
365 -29 908 -24 1265 10 39 4 90 9 115 11 25 2 64 6 88 9 23 3 63 8 90 11 26
3 58 7 72 9 14 2 45 6 70 10 25 3 56 8 70 10 14 3 39 7 55 9 105 17 235 41
332 61 61 14 122 26 135 29 36 6 302 74 403 102 221 62 645 207 800 274 11 5
54 23 95 40 225 95 530 242 702 338 59 33 113 62 120 66 7 4 22 12 33 19 11 7
47 28 80 47 149 85 451 282 604 394 170 124 473 364 567 451 6 5 49 43 95 84
46 41 181 172 299 290 191 192 256 260 395 418 20 24 41 40 46 37 5 -3 6 1 3
9 -3 8 8 25 26 41 17 14 28 26 24 26 -4 0 6 12 21 26 22 20 30 23 36 12 5 -7
9 -17 9 -22 0 -5 3 -6 6 -3 4 4 0 17 -8 30 -15 21 -14 25 8 50 13 16 24 23 24
17 0 -6 4 -9 9 -5 5 3 12 1 15 -4 4 -5 1 -13 -5 -17 -6 -3 -15 -1 -19 6 -5 9
-9 9 -14 1 -4 -6 -2 -11 5 -11 10 0 10 -3 1 -12 -17 -17 -15 -26 8 -38 14 -7
20 -7 20 0 0 5 -7 10 -15 10 -8 0 -15 4 -15 9 0 13 40 1 40 -13 0 -6 6 -2 12
9 11 19 11 19 20 0 7 -18 8 -18 4 2 -3 20 -1 22 19 17 12 -3 26 -1 30 6 5 8
10 8 20 0 10 -9 16 -7 23 7 5 10 7 23 5 30 -2 6 4 10 13 9 10 -2 20 -8 22 -14
2 -7 8 -10 13 -6 5 3 12 -2 15 -11 6 -14 10 -12 25 11 10 15 16 31 13 36 -3 4
-1 8 5 8 15 0 23 -18 11 -25 -13 -8 -13 -35 0 -35 5 0 6 7 3 17 -4 9 -2 14 3
10 6 -3 16 -2 24 4 11 6 12 9 2 9 -7 0 -10 5 -7 10 5 8 12 7 23 -2 12 -10 14
-10 8 0 -4 6 -3 12 2 12 16 0 22 -13 11 -27 -9 -9 -8 -13 0 -13 6 0 11 4 11
10 0 5 3 9 8 9 23 -4 33 3 28 19 -4 13 0 18 15 19 18 2 19 0 7 -15 -11 -15
-10 -15 8 0 23 20 45 25 26 6 -15 -15 -15 -28 -1 -28 5 0 8 4 4 9 -3 6 4 15
15 21 11 6 18 15 15 20 -3 5 -1 11 5 15 5 3 11 1 11 -4 1 -6 2 -16 3 -23 0 -6
8 -13 16 -15 12 -4 12 -3 1 5 -9 7 -10 12 -2 16 6 4 14 0 17 -8 3 -9 11 -16
16 -16 6 0 5 6 -2 15 -16 20 10 31 38 16 19 -10 32 -6 32 12 0 5 -7 7 -15 3
-23 -8 -44 4 -39 22 4 12 1 11 -8 -3 -16 -25 -34 -29 -42 -9 -3 8 -1 12 4 9 6
-3 7 1 4 9 -3 9 -1 16 6 16 6 0 9 -4 5 -9 -3 -5 -1 -12 4 -15 5 -3 12 1 15 9
4 10 -3 19 -19 25 -14 5 -25 12 -25 14 0 3 7 2 17 -1 11 -5 14 -3 8 6 -6 10
-3 11 12 2 11 -6 23 -8 26 -4 4 3 13 1 20 -5 8 -7 17 -9 21 -5 4 4 -4 13 -16
20 -21 12 -21 13 -3 11 11 -2 26 -11 33 -20 14 -20 52 -24 52 -7 0 6 -7 9 -15
5 -9 -3 -19 3 -26 17 -7 12 -8 19 -4 15 5 -4 15 -2 24 4 13 10 14 10 4 -2 -7
-8 -13 -19 -13 -25 1 -5 9 -1 18 10 20 22 42 30 42 15 0 -6 -7 -10 -15 -10 -8
0 -15 -4 -15 -8 0 -12 41 -9 64 4 16 10 17 12 2 17 -10 4 -15 3 -11 -3 3 -6 1
-10 -4 -10 -6 0 -11 7 -11 15 0 8 3 15 8 15 13 -1 57 -29 46 -30 -23 0 -22
-29 2 -55 17 -18 24 -22 24 -11 0 9 -4 16 -10 16 -5 0 -9 6 -7 13 1 6 -4 11
-11 9 -8 -1 -11 2 -7 7 3 6 12 8 20 5 20 -8 13 23 -11 42 -10 8 -14 13 -7 10
6 -4 15 -2 18 4 5 8 15 6 32 -5 24 -16 25 -16 19 7 -3 12 -3 17 0 11 3 -7 10
-13 15 -13 6 0 8 4 5 8 -7 12 27 11 42 -1 9 -7 16 -7 24 1 9 9 15 8 26 -1 13
-10 14 -8 9 13 -4 14 -4 19 -1 13 9 -20 24 -15 18 5 -5 14 -4 14 4 2 6 -8 9
-17 6 -21 -2 -4 0 -10 6 -14 5 -3 10 -1 10 5 0 7 7 10 18 6 14 -5 14 -3 -2 9
-17 13 -18 17 -6 28 7 7 10 7 7 1 -4 -7 0 -18 9 -25 13 -11 15 -11 14 2 -5 35
0 43 16 23 13 -16 15 -16 10 -2 -3 10 0 20 6 24 6 4 8 3 5 -3 -4 -6 1 -17 10
-24 15 -12 16 -12 10 4 -6 15 -4 16 13 7 12 -6 20 -7 20 -1 0 5 -5 11 -12 13
-7 3 -4 7 7 12 11 4 16 4 13 0 -4 -4 -3 -15 3 -25 8 -15 14 -17 29 -9 26 14
33 13 27 -4 -3 -8 1 -20 9 -26 8 -7 14 -9 14 -4 0 4 7 -1 16 -12 8 -10 13 -14
10 -8 -3 6 3 19 14 29 21 19 28 7 8 -13 -9 -9 -9 -15 -1 -23 8 -8 13 -7 18 2
5 8 4 10 -3 5 -7 -4 -12 -3 -12 2 0 17 13 22 28 9 9 -7 13 -7 9 -1 -10 17 42
37 59 23 19 -15 39 -2 23 17 -7 9 -8 14 -1 14 6 0 14 -5 17 -10 4 -7 13 -7 24
0 12 6 22 5 31 -3 8 -8 11 -8 7 -1 -4 7 0 17 9 24 13 12 14 9 9 -18 -3 -18 -1
-32 4 -32 6 0 8 9 6 20 -2 11 5 30 16 42 16 17 19 19 15 6 -3 -10 -1 -18 4
-18 6 0 10 6 10 14 0 8 7 17 16 20 26 10 28 7 8 -16 l-19 -23 24 20 c17 14 25
16 28 8 6 -16 24 -17 20 -2 -1 6 4 14 12 17 8 2 11 0 8 -5 -3 -5 0 -10 8 -10
12 0 12 4 -2 19 -14 16 -18 17 -25 4 -5 -8 -15 -13 -23 -10 -8 4 -13 10 -10
14 12 20 -20 21 -36 2 -13 -16 -18 -18 -22 -8 -3 7 0 19 6 26 9 10 9 11 -3 8
-8 -3 -15 -13 -15 -24 0 -25 -14 -46 -26 -38 -6 3 -3 11 7 18 15 12 14 13 -7
10 -13 -1 -26 -3 -29 -4 -3 -1 -9 -2 -13 -1 -4 1 -3 -7 3 -18 14 -27 14 -27
-20 -27 -22 0 -29 4 -25 14 3 7 5 17 5 20 0 4 4 0 10 -8 5 -8 12 -11 17 -7 4
5 1 12 -7 17 -11 7 -19 5 -27 -7 -10 -13 -13 -14 -13 -2 0 12 -2 12 -9 0 -7
-11 -9 -11 -13 0 -3 9 -6 8 -11 -5 -4 -9 -3 -15 2 -11 5 3 12 1 15 -4 3 -5 -1
-11 -9 -15 -8 -3 -19 2 -24 12 -9 16 -10 16 -16 0 -4 -10 -11 -15 -16 -12 -5
3 -6 11 -2 17 5 8 2 8 -9 -1 -12 -10 -17 -10 -27 1 -6 8 -8 17 -4 20 3 4 2 7
-4 7 -18 0 -23 -13 -11 -29 10 -13 10 -14 -2 -3 -12 10 -17 8 -28 -10 -7 -13
-11 -15 -8 -6 6 21 -19 31 -45 18 -13 -7 -19 -7 -19 0 0 5 7 10 15 10 8 0 15
4 15 8 0 4 10 9 22 9 18 2 20 0 8 -8 -12 -8 -11 -9 5 -6 11 2 19 9 17 18 -2 8
0 11 4 7 4 -4 13 -3 19 2 9 8 14 6 19 -5 6 -17 26 -12 26 6 0 6 -5 7 -12 3 -7
-4 -8 -3 -4 5 10 15 27 4 24 -16 -2 -9 3 -18 11 -21 10 -3 11 0 5 9 -6 11 -3
10 11 -1 17 -14 18 -13 12 3 -9 23 2 44 13 26 5 -7 16 -14 25 -15 12 -2 14 3
10 19 -5 16 -4 18 3 8 14 -20 43 -6 35 16 -4 12 1 10 15 -7 12 -14 21 -20 22
-14 0 5 -4 14 -10 20 -6 6 -5 15 1 24 9 13 10 13 6 -2 -9 -26 4 -29 26 -5 l19
22 -7 -25 c-8 -25 -8 -25 14 -6 17 15 19 22 9 29 -10 6 -9 7 2 4 8 -2 14 -11
13 -18 -2 -9 6 -15 19 -16 16 -2 18 1 9 10 -20 20 -12 26 30 22 36 -3 39 -2
27 12 -12 15 -11 15 9 2 13 -7 25 -20 28 -27 3 -8 0 -10 -6 -6 -8 4 -8 1 0
-14 6 -11 11 -24 11 -28 0 -13 -25 16 -25 29 0 7 -8 11 -18 11 -9 -1 -14 2
-11 7 3 5 1 9 -3 9 -5 0 -13 -8 -19 -18 -9 -13 -8 -21 4 -32 14 -13 15 -12 9
3 -9 24 7 21 41 -8 17 -14 32 -25 35 -25 3 0 14 15 26 33 11 17 21 26 21 18 0
-8 8 -4 20 10 10 13 19 19 20 12 0 -6 -4 -15 -10 -18 -5 -3 -10 -14 -10 -23 0
-10 6 -5 16 13 18 35 39 59 29 34 -4 -10 0 -19 11 -23 20 -8 45 10 38 28 -3 7
2 13 11 13 10 0 13 -6 10 -17 -4 -11 3 -20 19 -28 21 -9 24 -9 19 3 -3 8 -9
13 -13 10 -5 -3 -11 -1 -15 5 -3 5 -1 10 5 10 6 0 8 4 5 10 -3 5 -2 10 4 10 5
0 12 -6 15 -12 3 -7 3 -2 -1 12 -5 22 -4 23 10 12 10 -9 17 -10 22 -2 3 5 11
10 17 10 6 0 6 -6 -2 -15 -7 -9 -10 -18 -7 -22 4 -3 9 2 13 11 3 9 10 13 15
10 5 -3 9 0 9 6 0 7 7 9 16 6 8 -3 13 -2 11 2 -2 4 4 15 14 24 12 12 19 13 22
5 2 -7 2 -3 0 8 -3 11 -5 28 -6 37 -1 9 -3 15 -5 13 -3 -2 -13 0 -23 6 -23 12
-24 0 -4 -27 17 -22 19 -44 5 -44 -5 0 -9 6 -7 13 1 6 -4 11 -10 10 -7 -2 -13
2 -13 7 0 6 -4 10 -9 10 -4 0 -8 -10 -7 -22 0 -11 -5 -23 -13 -26 -8 -3 -11 0
-7 6 3 6 1 14 -5 18 -8 5 -9 3 -4 -6 5 -9 4 -11 -4 -6 -6 4 -8 12 -5 18 4 7 2
8 -5 4 -6 -4 -9 -10 -7 -14 2 -4 -2 -13 -10 -20 -8 -7 -14 -10 -14 -6 0 4 -8
0 -18 -9 -15 -13 -21 -14 -32 -4 -10 10 -11 9 -5 -3 8 -13 7 -13 -10 0 -10 8
-16 10 -12 3 5 -8 1 -11 -13 -8 -13 3 -18 0 -14 -7 5 -7 2 -8 -6 -3 -9 6 -11
4 -5 -6 7 -11 5 -11 -10 1 -10 8 -16 10 -12 3 5 -8 1 -11 -13 -8 -13 3 -18 0
-14 -7 5 -7 2 -8 -6 -3 -9 6 -11 4 -5 -5 5 -9 4 -11 -4 -6 -8 6 -9 12 -2 20
10 12 5 26 -9 26 -8 0 -6 -37 3 -46 4 -4 7 -12 7 -18 0 -6 -4 -4 -10 4 -5 8
-13 11 -17 6 -4 -5 -3 -11 4 -13 12 -4 7 -33 -6 -33 -5 0 -7 59 -2 103 1 5 10
7 20 5 11 -2 32 8 47 22 15 14 24 19 20 13 -9 -16 10 -17 19 -3 5 8 12 7 23
-2 13 -11 15 -10 9 5 -4 11 -3 16 4 12 5 -4 7 -15 4 -25 -4 -13 -1 -18 9 -16
19 3 34 16 18 16 -15 0 -15 27 0 36 8 5 9 2 5 -9 -3 -9 -2 -19 3 -22 10 -6 14
7 11 35 -1 9 1 11 6 5 4 -5 17 -12 27 -13 18 -3 18 -2 6 15 -8 10 -10 15 -6
11 5 -4 15 -3 22 3 9 7 20 6 38 -6 15 -10 26 -13 26 -7 0 6 -8 16 -17 21 -17
10 -16 11 2 12 11 1 26 1 34 0 7 -2 10 2 7 7 -5 8 8 15 44 26 15 4 47 33 52
46 3 9 0 24 -8 35 -8 10 -14 15 -14 11 0 -4 -13 2 -29 13 -16 12 -34 21 -40
21 -23 0 -10 16 14 18 14 1 25 -3 25 -9 0 -5 -5 -7 -12 -3 -7 5 -8 3 -4 -5 5
-7 10 -10 14 -7 3 3 10 -1 16 -9 9 -12 11 -9 13 17 1 24 -1 28 -6 14 -7 -18
-8 -18 -14 -2 -5 12 -14 17 -27 13 -15 -4 -24 2 -36 25 -8 16 -18 27 -21 24
-3 -3 0 -12 6 -20 7 -8 9 -21 5 -27 -5 -8 -3 -9 6 -4 9 5 11 4 6 -3 -10 -16
-29 -15 -23 1 2 6 -2 20 -10 29 -12 13 -12 21 -3 40 11 22 10 22 -4 4 -20 -25
-20 -31 -1 -50 9 -9 11 -17 5 -21 -5 -3 -10 -2 -10 2 0 5 -12 10 -26 11 -15 1
-32 6 -39 12 -6 5 -16 6 -20 2 -5 -4 -5 -1 0 7 6 10 2 12 -13 7 -17 -6 -21 -3
-19 14 1 11 5 20 10 20 5 0 7 -7 3 -15 -8 -22 2 -18 15 6 8 15 8 19 0 15 -6
-4 -11 -2 -11 4 0 6 -4 8 -10 5 -5 -3 -10 1 -10 9 0 9 -5 16 -11 16 -5 0 -7 6
-3 13 5 7 1 7 -12 -3 -29 -22 -30 -24 -12 -17 19 7 27 -2 33 -32 4 -23 -23
-37 -31 -16 -4 8 -10 15 -16 15 -5 0 -6 -4 -3 -10 7 -11 -8 -14 -19 -3 -3 4
-17 9 -29 11 -29 5 -51 10 -54 12 -2 2 -7 3 -12 4 -5 0 -12 4 -16 8 -4 4 -14
4 -23 1 -11 -5 -14 -2 -9 10 7 19 -8 33 -19 16 -5 -8 -3 -9 6 -4 9 5 11 4 6
-3 -5 -9 -13 -9 -26 -2 -11 6 -23 10 -27 9 -4 -1 -10 0 -13 1 -10 3 -45 11
-57 12 -7 1 -13 5 -13 10 0 5 -7 8 -16 6 -10 -2 -19 3 -21 10 -3 6 0 12 7 12
6 0 8 -5 4 -12 -4 -7 -3 -8 4 -4 6 4 9 13 6 21 -5 11 -10 12 -24 3 -10 -7 -16
-16 -14 -20 3 -4 -5 -6 -18 -4 -13 3 -23 5 -23 6 0 1 -8 3 -17 6 -10 2 -26 6
-35 8 -10 3 -18 5 -18 6 0 1 -11 4 -25 6 -13 2 -27 8 -30 12 -3 5 -16 9 -30 9
-23 1 -72 9 -77 14 -2 1 -7 3 -13 4 -5 1 -13 4 -17 5 -5 1 -15 2 -25 1 -9 -1
-19 3 -22 8 -4 6 -13 8 -21 5 -7 -3 -19 4 -25 16 -10 18 -9 21 2 17 7 -2 12
-10 11 -16 -4 -18 7 -13 27 12 10 12 22 19 26 14 4 -4 -1 -13 -11 -21 -14 -10
-15 -15 -5 -21 8 -5 11 -4 7 2 -4 6 4 15 17 21 20 9 25 8 30 -5 4 -11 2 -14
-9 -10 -8 4 -17 1 -21 -5 -4 -6 -3 -8 4 -4 6 3 14 1 18 -5 11 -18 24 12 14 31
-6 10 -5 21 1 27 6 6 5 10 -5 10 -8 0 -14 -3 -13 -6 1 -3 -2 -6 -8 -6 -5 0 -9
4 -7 9 2 5 -9 1 -24 -9 -26 -17 -27 -17 -21 1 7 18 6 18 -8 0 -14 -19 -15 -18
-24 5 l-10 24 0 -23 c-1 -13 -5 -21 -10 -17 -5 3 -12 1 -15 -4 -4 -5 -1 -13 5
-17 8 -5 9 -3 4 7 -6 11 -5 12 5 2 16 -15 7 -28 -12 -17 -7 5 -21 9 -30 10
-57 5 -55 4 -35 15 13 8 22 7 33 -1 7 -7 15 -9 15 -4 7 46 6 51 -15 49 -12 -1
-21 -3 -21 -4 0 -2 -9 -4 -20 -6 -24 -5 -47 13 -38 29 4 6 0 5 -9 -2 -11 -9
-18 -10 -23 -2 -3 5 -11 10 -18 10 -6 0 -3 -6 8 -13 11 -9 15 -19 10 -27 -5
-8 -4 -11 2 -7 5 3 10 0 10 -7 0 -8 -6 -12 -14 -9 -7 3 -13 9 -13 13 0 4 -12
8 -27 9 -54 1 -63 2 -63 10 0 5 -11 7 -25 6 -30 -4 -32 11 -5 45 11 14 20 33
20 42 0 9 4 18 8 20 5 2 20 26 33 53 56 109 127 253 156 312 16 35 34 59 38
55 5 -4 5 -2 1 5 -7 13 23 83 36 83 4 0 5 7 1 16 -3 9 0 19 6 24 7 4 14 15 15
25 1 10 13 20 25 22 17 2 22 -1 18 -12 -8 -20 9 -28 30 -15 16 9 15 10 -4 5
-18 -5 -22 -3 -17 9 3 9 10 13 15 10 8 -5 34 -11 78 -18 8 -2 15 -13 16 -25 2
-31 25 -44 46 -25 11 10 19 12 23 5 4 -6 13 -8 21 -5 8 4 12 11 9 16 -4 6 3 5
15 -1 11 -7 21 -8 21 -4 0 4 5 1 10 -7 5 -8 7 -23 4 -34 -4 -13 -2 -16 6 -11
7 4 9 18 6 34 -4 14 -3 22 1 16 4 -5 19 -11 33 -13 14 -1 31 -3 38 -4 6 -1 12
-6 12 -11 0 -5 -7 -7 -15 -3 -15 5 -42 -30 -31 -42 3 -3 6 0 6 6 0 6 6 10 13
8 6 -1 9 -1 5 1 -14 8 -8 23 6 17 7 -3 20 1 27 8 15 15 59 21 59 9 0 -16 -14
-20 -29 -9 -9 7 -12 8 -8 3 4 -5 -1 -14 -12 -20 -15 -7 -18 -14 -11 -25 8 -13
10 -12 10 3 0 20 11 22 29 5 11 -11 12 -10 6 1 -6 11 -4 13 8 8 12 -4 14 -2
10 11 -6 15 -3 14 15 -2 27 -24 28 -36 3 -29 -23 6 -33 -8 -19 -27 8 -12 9
-11 4 4 -5 15 -2 17 14 13 25 -6 36 9 20 28 -8 10 -9 15 -2 15 6 0 18 -10 26
-22 9 -12 16 -17 16 -10 0 6 4 12 10 12 5 0 7 -8 4 -17 -5 -16 -4 -16 5 -2 6
9 22 24 36 33 20 13 30 14 46 5 14 -7 19 -7 15 0 -4 5 3 15 14 21 11 6 18 15
15 19 -3 5 2 11 10 15 8 3 18 -2 23 -10 7 -12 10 -10 20 10 8 18 17 24 29 20
10 -2 8 1 -4 7 -27 14 -30 29 -5 29 14 0 15 2 2 10 -12 8 -12 10 -1 10 8 0 20
8 28 18 14 16 14 16 9 0 -3 -10 -1 -20 3 -22 5 -3 8 4 7 15 0 11 -8 24 -16 29
-8 5 -11 12 -7 16 4 4 13 2 19 -4 7 -7 17 -12 22 -12 6 0 0 7 -12 16 -12 8
-20 20 -17 25 3 5 0 6 -8 3 -8 -3 -14 2 -14 11 0 8 3 15 6 15 13 -1 36 -20 36
-31 0 -7 7 -14 15 -16 13 -4 13 -3 0 6 -8 6 -12 11 -7 11 4 0 0 11 -8 24 -11
16 -13 26 -6 31 6 3 11 1 11 -4 0 -6 5 -11 12 -11 9 0 9 3 1 11 -12 12 -6 42
6 34 4 -2 8 3 8 12 0 11 -11 4 -31 -20 -17 -20 -35 -37 -40 -37 -5 0 -1 9 9
20 10 11 15 20 12 20 -3 0 4 10 16 23 12 13 25 22 28 20 4 -1 13 5 20 15 11
14 11 15 0 5 -7 -6 -20 -9 -27 -6 -8 3 -14 -1 -14 -11 0 -10 -6 -13 -16 -9 -9
3 -14 13 -11 24 3 11 0 16 -7 13 -12 -4 -15 5 -17 46 0 9 -13 21 -29 28 -15 7
-27 19 -26 27 4 25 14 27 21 5 5 -15 12 -19 27 -14 13 4 18 2 14 -4 -4 -6 1
-15 10 -20 11 -6 13 -11 5 -16 -6 -4 -11 -13 -11 -19 0 -7 5 -4 11 5 5 10 16
15 24 12 8 -4 15 -1 15 6 0 6 -3 9 -8 6 -9 -5 -43 19 -43 31 0 4 -7 7 -15 7
-8 -1 -21 11 -30 27 -8 16 -20 29 -27 29 -8 0 -7 -4 3 -10 8 -5 12 -12 8 -15
-7 -8 -48 16 -48 28 0 4 5 5 10 2 6 -3 10 -2 10 4 0 18 -18 21 -24 4 -5 -11 1
-23 16 -34 12 -10 20 -20 17 -24 -10 -9 -50 28 -53 50 -2 11 4 25 12 31 12 9
12 13 2 19 -9 6 -11 4 -5 -5 6 -10 4 -12 -9 -7 -10 4 -15 3 -11 -3 6 -10 0
-12 -35 -12 -33 0 -35 1 -14 16 13 10 21 11 25 4 4 -6 6 1 6 16 -2 27 -2 27
-16 7 -15 -24 -28 -27 -34 -8 -2 6 -3 4 -2 -5 3 -20 -3 -22 -24 -9 -9 6 -10
11 -2 15 6 4 11 13 11 19 0 7 -9 1 -19 -12 l-18 -24 -15 22 c-14 19 -17 20
-28 6 -11 -13 -10 -14 3 -10 9 4 21 -2 30 -15 9 -12 20 -19 26 -16 14 9 53
-12 46 -24 -3 -5 -1 -11 5 -15 5 -3 10 1 10 9 0 9 5 16 10 16 12 0 9 -22 -5
-33 -6 -5 -4 -7 5 -4 8 2 15 10 15 17 0 7 6 15 13 18 11 3 12 0 2 -18 -10 -18
-9 -21 1 -15 8 6 10 4 4 -5 -5 -8 -4 -11 2 -7 5 3 10 0 10 -8 0 -20 -13 -19
-21 1 -3 8 -10 13 -15 9 -9 -5 -45 16 -111 62 -14 10 -31 17 -37 15 -7 -2 -13
2 -13 8 0 6 -4 8 -10 5 -5 -3 -10 -3 -10 2 0 4 -12 9 -27 10 -36 2 -98 10 -98
13 0 1 -13 3 -30 5 -16 1 -32 4 -35 5 -3 1 -13 1 -23 0 -14 -1 -17 3 -14 17 3
10 11 37 18 60 7 23 15 40 19 38 4 -3 7 3 7 13 0 38 3 53 11 49 4 -3 8 7 8 21
1 15 29 121 63 235 33 115 63 218 65 230 2 12 13 58 24 102 32 126 96 440 108
525 2 19 6 42 9 50 2 8 7 38 11 65 3 28 8 58 10 69 2 10 6 44 9 75 4 31 8 63
10 71 2 8 7 47 10 85 4 39 8 81 10 95 2 14 6 59 10 100 3 41 8 98 10 125 23
257 23 1021 1 1155 -3 14 -7 65 -11 114 -4 50 -8 97 -10 105 -1 9 -6 48 -9 86
-4 39 -9 81 -10 95 -10 74 -17 128 -21 150 -6 36 -23 148 -30 195 -12 75 -76
390 -97 470 -11 44 -21 87 -23 95 -2 8 -15 60 -29 115 -15 55 -28 107 -30 115
-51 197 -233 718 -320 911 -13 31 -22 60 -19 63 4 3 1 6 -6 6 -7 0 -11 6 -8
14 3 8 3 16 -1 18 -13 6 -67 125 -64 141 1 4 -2 7 -8 7 -5 0 -10 5 -10 11 0 5
6 7 13 4 6 -4 5 -1 -4 7 -9 7 -14 19 -11 27 2 8 0 11 -5 8 -12 -7 -46 60 -38
74 4 5 1 9 -4 9 -6 0 -11 9 -11 21 0 13 -4 18 -12 13 -7 -4 -10 -3 -5 1 4 5 0
17 -10 27 -9 10 -13 21 -10 25 4 3 7 1 7 -6 0 -8 5 -9 18 -2 20 11 19 11 26
-44 2 -16 5 -32 6 -35 1 -3 3 -9 5 -15 1 -5 6 -20 10 -33 7 -21 8 -21 22 -5
14 17 14 17 9 1 -3 -10 -1 -18 4 -18 17 0 11 26 -10 45 -25 23 -25 30 0 55 16
16 17 20 5 20 -8 0 -15 -5 -15 -11 0 -5 -5 -7 -10 -4 -6 4 -7 11 -4 17 4 7 2
8 -4 4 -7 -4 -12 -2 -12 5 0 6 8 9 19 6 13 -3 18 0 15 8 -3 7 -13 12 -22 11
-20 -1 -23 26 -4 30 7 1 8 0 2 -3 -5 -2 -10 -9 -10 -14 0 -14 18 -1 30 21 8
15 6 17 -13 13 -14 -3 -18 -2 -10 4 9 6 6 12 -10 22 -21 13 -21 13 -7 -5 11
-15 11 -16 0 -6 -8 6 -19 12 -24 12 -6 0 -5 -4 3 -9 8 -5 16 -17 17 -26 2 -13
0 -14 -12 -4 -9 7 -14 8 -14 1 0 -6 6 -12 13 -15 6 -2 8 -8 4 -13 -11 -12 -28
18 -21 39 5 17 -3 21 -36 18 -11 -1 -10 1 3 9 9 6 15 15 12 20 -9 14 37 41 50
30 7 -6 16 -5 23 2 8 8 12 8 12 1 0 -6 -7 -16 -15 -23 -12 -10 -16 -9 -21 4
-3 9 -10 13 -15 10 -5 -3 -7 -10 -4 -15 3 -5 0 -6 -8 -3 -8 3 -14 -2 -14 -11
0 -18 2 -18 27 -5 13 7 21 7 25 0 10 -16 26 -12 23 6 -2 10 3 19 10 21 8 3 10
-1 5 -14 -7 -19 -5 -18 17 10 7 10 9 17 4 16 -21 -4 -28 2 -14 11 11 7 9 9
-10 8 -14 -1 -28 -7 -32 -13 -5 -6 -8 -3 -8 8 0 16 -2 16 -30 2 -28 -14 -34
-13 -31 8 0 4 -4 7 -11 7 -6 0 -8 3 -5 6 4 4 13 2 20 -5 17 -13 50 -4 40 12
-3 5 -1 7 5 3 5 -3 12 -3 15 1 2 5 3 4 2 -2 -2 -5 8 -11 20 -11 l22 -2 -24 24
c-12 13 -23 29 -23 36 1 7 12 0 25 -17 14 -16 25 -25 25 -20 0 6 -5 16 -12 23
-16 16 4 16 22 0 12 -11 12 -10 0 5 -7 10 -19 16 -26 13 -7 -3 -16 -1 -19 3
-7 12 21 22 43 15 13 -4 13 -3 -3 7 -19 12 -19 12 0 20 17 6 17 8 3 8 -9 1
-21 -6 -26 -15 -5 -10 -14 -14 -21 -9 -9 5 -1 15 23 31 20 14 36 27 36 31 0 3
-6 1 -13 -5 -8 -7 -18 -7 -27 -2 -8 6 -11 10 -6 10 5 0 3 6 -3 13 -6 8 -8 17
-4 21 4 4 13 -4 20 -16 12 -21 13 -21 11 -3 -2 11 -12 28 -23 37 -11 10 -15
17 -8 18 6 0 15 -4 18 -10 3 -5 11 -10 18 -10 6 0 2 6 -8 14 -19 14 -19 15 -2
34 17 18 16 20 -7 37 -29 22 -26 33 7 30 14 -2 24 2 24 11 0 7 -3 11 -7 9 -3
-2 -12 6 -19 17 -11 18 -11 20 1 15 8 -3 15 1 15 8 0 10 -5 11 -18 4 -11 -5
-20 -5 -24 0 -3 5 4 12 15 16 26 8 25 17 -1 33 -26 16 -18 28 8 13 15 -8 20
-7 20 4 0 8 -3 12 -7 10 -3 -2 -19 2 -34 10 -15 8 -24 9 -20 3 4 -7 3 -8 -4
-4 -7 4 -10 -1 -7 -14 2 -12 -2 -23 -10 -27 -8 -3 -12 -9 -9 -14 9 -15 22 -10
29 11 4 11 11 18 16 14 7 -4 5 -12 -4 -22 -8 -10 -13 -27 -12 -39 1 -12 -2
-20 -7 -17 -11 7 -10 -8 2 -26 7 -11 10 -11 10 -2 0 7 5 10 11 7 16 -11 -20
-45 -39 -37 -15 5 -15 3 -4 -10 10 -13 10 -18 1 -24 -8 -4 -9 -3 -5 4 4 7 2
12 -4 12 -7 0 -9 8 -4 22 6 21 5 22 -11 8 -11 -8 -16 -10 -12 -3 4 6 4 13 0
16 -5 2 -3 2 4 1 6 -2 17 4 23 12 16 18 -7 51 -24 34 -13 -13 -26 -13 -26 1 0
5 4 8 9 4 5 -3 12 -1 16 5 4 6 10 8 15 5 5 -3 11 -1 15 5 3 5 1 10 -5 10 -7 0
-9 8 -5 21 6 16 4 20 -6 14 -8 -5 -5 1 5 13 20 23 9 31 -12 10 -9 -9 -12 -9
-12 0 0 7 5 12 11 12 5 0 7 5 3 12 -4 7 -3 8 4 4 14 -9 15 3 2 24 -6 10 -4 20
7 32 9 10 11 18 5 18 -6 0 -20 -12 -32 -27 -12 -16 -19 -22 -15 -15 4 7 1 21
-7 30 -11 15 -11 15 3 5 22 -18 31 -5 11 17 -15 18 -16 18 -29 2 -13 -15 -13
-15 -3 5 6 14 16 20 26 16 9 -3 14 -1 12 7 -2 7 3 15 11 18 10 3 12 0 8 -12
-5 -11 -3 -15 5 -10 6 4 8 3 4 -4 -3 -6 -2 -13 4 -17 5 -3 10 1 10 10 0 9 5
13 10 10 6 -4 7 -12 3 -18 -17 -27 -7 -51 21 -52 5 0 11 -6 14 -14 3 -9 0 -11
-8 -6 -9 6 -11 4 -5 -5 5 -9 4 -11 -3 -6 -7 4 -12 5 -12 2 0 -3 9 -10 20 -16
16 -9 19 -8 14 7 -5 16 -4 16 10 -1 21 -26 21 -12 0 19 -15 23 -15 25 0 31 9
3 16 11 16 17 0 5 -9 2 -20 -8 -24 -22 -27 -9 -3 17 9 10 11 18 6 18 -6 0 -13
-7 -17 -15 -3 -8 -11 -15 -17 -15 -8 0 -8 4 0 13 8 10 7 17 -2 27 -10 10 -9
12 5 7 21 -7 14 19 -7 27 -9 3 -12 0 -9 -8 3 -7 -2 -13 -10 -13 -8 0 -14 9
-13 19 1 10 5 18 9 18 4 0 7 5 6 11 -2 6 3 14 10 16 8 3 10 -2 6 -14 -5 -14
-4 -15 4 -3 19 25 9 30 -61 31 -16 1 -26 3 -23 6 3 3 1 14 -5 24 -6 11 -6 19
0 19 5 0 11 -7 15 -15 6 -17 26 -20 26 -4 0 5 -4 8 -9 5 -5 -3 -12 1 -15 10
-3 9 -13 14 -21 10 -15 -5 -31 9 -18 17 5 2 3 3 -3 1 -7 -1 -22 5 -35 13 -12
9 -19 11 -15 5 4 -7 1 -12 -8 -12 -9 0 -16 5 -16 10 0 6 -5 10 -11 10 -5 0 -7
-5 -4 -11 5 -7 -3 -9 -21 -7 -22 2 -28 8 -26 23 2 16 1 17 -7 5 -5 -8 -7 -18
-4 -23 3 -4 -12 -7 -33 -5 -32 2 -39 6 -36 23 2 16 1 17 -7 5 -5 -8 -7 -18 -5
-22 8 -13 -21 -9 -35 5 -8 7 -11 7 -8 1 5 -8 -10 -11 -48 -11 -38 0 -53 3 -48
11 4 6 0 5 -9 -2 -10 -8 -36 -12 -65 -10 -38 2 -48 7 -47 20 1 9 -4 14 -10 12
-6 -2 -17 6 -25 18 -23 38 -288 389 -301 398 -3 3 -13 14 -21 26 -8 11 -36 47
-64 79 -27 32 -67 79 -89 104 -142 169 -523 558 -701 717 -199 177 -423 357
-675 541 -380 277 -974 614 -1405 798 -60 25 -124 53 -140 60 -113 51 -506
192 -725 259 -160 50 -483 131 -680 171 -184 38 -205 42 -355 65 -38 6 -81 13
-95 15 -25 4 -65 9 -147 20 -24 3 -60 7 -80 10 -21 3 -65 7 -98 10 -33 2 -84
7 -112 10 -122 12 -164 15 -268 21 -103 6 -623 13 -628 8z m7114 -3406 c13
-17 18 -29 12 -25 -6 4 -13 0 -16 -8 -4 -9 -1 -12 9 -8 7 3 14 0 14 -7 0 -9 3
-10 14 -1 21 17 48 3 36 -19 -5 -9 -7 -19 -5 -22 2 -2 -4 -4 -13 -4 -26 -1
-46 -8 -54 -19 -4 -5 -10 -6 -15 -2 -9 9 17 28 29 21 4 -3 8 -1 8 4 0 16 -12
21 -29 13 -14 -8 -16 -1 -17 50 -1 32 0 59 2 59 1 0 13 -14 25 -32z m3 -184
c3 -8 2 -12 -4 -9 -6 3 -10 10 -10 16 0 14 7 11 14 -7z m40 -39 c-7 -16 -24
-21 -24 -6 0 8 7 13 27 20 1 1 0 -6 -3 -14z m-44 -39 c0 -3 -4 -8 -10 -11 -5
-3 -10 -1 -10 4 0 6 5 11 10 11 6 0 10 -2 10 -4z m35 -26 c-3 -5 -1 -10 6 -10
7 0 10 -3 6 -6 -9 -9 -28 6 -22 17 4 5 8 9 11 9 3 0 2 -4 -1 -10z m-42 -15
c-3 -9 -8 -14 -10 -11 -3 3 -2 9 2 15 9 16 15 13 8 -4z m147 -4 c0 -5 -7 -12
-16 -15 -14 -5 -15 -4 -4 9 14 17 20 19 20 6z m14 -91 c-7 -7 -44 39 -44 54 1
6 12 -2 25 -19 13 -16 22 -32 19 -35z m-94 30 c0 -5 -5 -10 -11 -10 -5 0 -7 5
-4 10 3 6 8 10 11 10 2 0 4 -4 4 -10z m-25 -68 c-3 -3 -11 0 -18 7 -9 10 -8
11 6 5 10 -3 15 -9 12 -12z m98 -43 c-16 -18 -21 -29 -13 -34 8 -5 8 -10 0
-20 -8 -9 -8 -15 0 -20 6 -3 8 -10 5 -15 -3 -5 -1 -11 5 -15 6 -4 8 -11 4 -16
-3 -5 -9 -7 -14 -4 -4 3 -10 -2 -14 -10 -3 -8 -1 -17 5 -20 15 -10 0 -25 -19
-18 -16 6 -16 5 0 -13 17 -19 16 -21 -2 -37 -25 -21 -37 -22 -19 -1 11 13 9
14 -17 9 l-29 -7 25 15 c14 7 23 20 21 28 -2 8 -4 20 -4 27 0 15 -10 15 -25 0
-7 -7 -12 -9 -12 -5 0 3 10 16 23 28 l22 22 -30 -7 c-25 -5 -27 -4 -12 5 10 6
24 8 32 5 7 -2 19 2 27 11 11 14 10 15 -9 9 -12 -4 -24 -2 -28 3 -3 7 0 8 9 5
11 -4 16 0 16 11 0 10 -4 13 -12 9 -10 -6 -10 -4 0 8 11 14 10 18 -5 27 -10 6
-13 11 -6 11 6 0 15 -4 18 -10 3 -5 12 -10 18 -10 7 1 1 9 -12 20 -12 11 -28
17 -34 13 -6 -3 -7 -1 -3 5 4 7 1 12 -6 13 -10 0 -10 2 -1 6 7 2 21 -3 30 -12
16 -17 18 -16 31 13 15 30 16 30 38 14 l22 -17 -25 -26z m-119 33 c3 -5 -1 -9
-9 -9 -8 0 -12 4 -9 9 3 4 7 8 9 8 2 0 6 -4 9 -8z m22 -44 c4 -6 3 -8 -4 -4
-6 3 -15 -2 -21 -11 -6 -10 -11 -13 -11 -7 0 9 19 34 26 34 2 0 6 -5 10 -12z
m24 -22 c0 -2 -9 -6 -20 -9 -11 -3 -18 -1 -14 4 5 9 34 13 34 5z m-37 -43 c-5
-12 -3 -14 8 -8 8 5 11 4 6 0 -4 -5 -14 -10 -22 -11 -12 -2 -12 2 -5 17 13 23
22 25 13 2z m37 -103 c0 -5 -2 -10 -4 -10 -3 0 -8 5 -11 10 -3 6 -1 10 4 10 6
0 11 -4 11 -10z m-25 -18 c-3 -3 -11 0 -18 7 -9 10 -8 11 6 5 10 -3 15 -9 12
-12z m-15 -48 c0 -8 -19 -13 -24 -6 -3 5 1 9 9 9 8 0 15 -2 15 -3z m40 -114
c0 -5 -5 -10 -11 -10 -5 0 -7 5 -4 10 3 6 8 10 11 10 2 0 4 -4 4 -10z m80
-110 c0 -5 -4 -10 -10 -10 -5 0 -10 5 -10 10 0 6 5 10 10 10 6 0 10 -4 10 -10z
m16 -57 c-7 -7 -26 7 -26 19 0 6 6 6 15 -2 9 -7 13 -15 11 -17z m798 -6136 c4
5 6 4 4 -2 -4 -13 38 -55 48 -47 4 4 4 1 0 -6 -4 -7 -2 -19 4 -27 7 -8 9 -15
5 -15 -4 0 -2 -6 4 -14 10 -11 8 -17 -6 -25 -14 -8 -15 -10 -3 -11 12 0 13 -2
1 -9 -9 -6 -10 -11 -2 -15 10 -6 15 6 12 27 -1 9 11 9 27 -2 11 -6 10 -10 -4
-15 -9 -3 -14 -9 -11 -13 9 -9 -13 -34 -24 -27 -5 3 -9 0 -9 -5 0 -6 6 -11 13
-11 8 0 7 -4 -3 -10 -13 -8 -13 -10 -1 -10 11 0 9 -4 -5 -14 -18 -14 -18 -14
0 -13 27 3 31 -49 5 -63 -11 -6 -25 -8 -32 -4 -9 6 -9 4 -2 -7 9 -13 11 -28 6
-68 -1 -11 -4 -11 -16 -1 -12 10 -18 10 -30 0 -9 -7 -13 -15 -10 -18 3 -3 -4
-12 -16 -20 -16 -11 -23 -12 -32 -3 -9 9 -7 11 8 6 16 -5 17 -5 5 3 -8 6 -18
8 -24 5 -5 -4 -7 1 -2 12 4 11 0 25 -9 35 -14 15 -13 19 7 36 18 15 20 16 9 2
-14 -19 -5 -23 18 -9 13 8 13 12 1 28 -8 10 -10 15 -6 11 5 -4 15 0 21 9 11
15 15 14 39 -12 15 -16 24 -21 20 -12 -6 16 4 22 29 18 4 0 7 4 7 10 0 5 5 7
12 3 7 -4 8 -3 4 5 -4 6 -13 9 -19 5 -7 -3 -3 2 7 10 11 9 15 16 9 16 -5 0
-20 -9 -33 -20 -17 -15 -27 -17 -41 -9 -11 5 -19 13 -19 16 0 3 3 3 7 0 3 -4
12 2 20 13 9 12 20 17 31 13 9 -3 14 -3 10 2 -4 4 -2 15 5 23 10 13 9 15 -8 8
-11 -4 -24 -8 -30 -9 -14 -3 -6 35 12 55 14 15 12 19 -18 38 -28 17 -29 20 -9
14 22 -6 23 -5 11 9 -7 9 -18 14 -24 10 -6 -3 -7 -1 -3 5 4 6 14 8 23 5 14 -5
13 -3 -2 20 -9 14 -14 31 -10 38 5 8 1 9 -14 4 -11 -3 -21 -2 -21 3 0 5 -9 12
-20 15 -11 3 -20 11 -20 19 0 10 2 10 9 -1 5 -8 16 -11 26 -8 9 4 13 12 9 18
-3 6 5 4 18 -5 14 -9 28 -13 32 -9z m-34 -62 c7 -9 8 -15 2 -15 -5 0 -12 7
-16 15 -3 8 -4 15 -2 15 2 0 9 -7 16 -15z m35 -106 c-4 -5 -12 -9 -18 -8 -9 0
-8 2 1 6 6 2 9 10 6 15 -4 7 -2 8 5 4 6 -4 9 -12 6 -17z m-15 -84 c0 -5 -5 -3
-10 5 -5 8 -10 20 -10 25 0 6 5 3 10 -5 5 -8 10 -19 10 -25z m-15045 -15 c0
-3 3 -10 7 -15 4 -6 3 -17 -1 -23 -6 -10 -11 -9 -21 2 -7 9 -17 13 -22 10 -6
-4 -14 0 -19 7 -4 8 -15 14 -23 14 -9 0 -16 5 -16 10 0 6 6 10 13 10 6 0 15 5
19 10 5 6 8 4 8 -5 0 -13 1 -13 10 0 6 10 10 11 10 3 0 -7 4 -13 10 -13 5 0 7
8 4 18 -4 13 -2 12 7 -3 8 -11 14 -22 14 -25z m15016 -3 c-10 -9 -11 -8 -5 6
3 10 9 15 12 12 3 -3 0 -11 -7 -18z m-56 -162 c0 -14 -4 -24 -10 -23 -5 2 -9
16 -9 31 1 20 -3 27 -12 23 -8 -3 -11 0 -7 10 9 23 39 -9 38 -41z m-420 36 c3
-6 14 -8 25 -6 13 3 20 -2 20 -12 0 -12 -3 -13 -14 -4 -11 9 -17 8 -29 -3 -13
-13 -17 -14 -27 -1 -12 14 -6 35 10 35 5 0 11 -4 15 -9z m383 -25 c4 -2 8 -17
7 -32 0 -21 -5 -28 -23 -29 -14 -1 -29 6 -35 16 -8 13 -15 15 -23 8 -8 -7 -15
-6 -19 2 -4 6 -2 15 4 19 16 9 61 1 61 -12 0 -5 -6 -6 -12 -2 -7 4 -10 3 -5
-1 4 -5 18 -10 30 -12 18 -2 19 -1 7 7 -13 9 -13 11 0 21 13 9 12 10 -2 5 -10
-3 -20 -1 -23 5 -4 5 -11 6 -17 3 -6 -4 -8 -2 -4 4 6 10 36 9 54 -2z m-15628
-262 c0 -8 -5 -12 -10 -9 -6 4 -8 11 -5 16 9 14 15 11 15 -7z m540 -5 c0 -5
-4 -9 -10 -9 -5 0 -10 7 -10 16 0 8 5 12 10 9 6 -3 10 -10 10 -16z m310 7 c0
-3 -4 -8 -10 -11 -5 -3 -10 -1 -10 4 0 6 5 11 10 11 6 0 10 -2 10 -4z m14079
-403 c6 6 11 7 11 3 0 -5 7 -3 15 4 12 10 19 10 27 2 7 -7 8 -15 3 -19 -4 -5
-10 -2 -12 5 -3 9 -9 10 -17 3 -16 -13 -66 -22 -66 -11 0 5 -3 17 -6 27 -5 15
-2 14 14 -4 14 -16 22 -19 31 -10z m1105 -529 c3 -8 2 -12 -4 -9 -6 3 -10 10
-10 16 0 14 7 11 14 -7z m-27 -38 c-2 -13 -18 -26 -31 -26 -5 0 -3 6 3 13 6 8
9 16 6 19 -3 2 2 5 9 5 8 0 14 -5 13 -11z m-63 -27 c-3 -5 -10 -7 -15 -3 -5 3
-7 10 -3 15 3 5 10 7 15 3 5 -3 7 -10 3 -15z m-272 4 c-6 -2 -9 -10 -6 -15 4
-7 2 -8 -5 -4 -13 9 -5 26 12 25 9 0 8 -2 -1 -6z m168 -35 c0 -4 0 -11 0 -15
0 -15 -23 -8 -25 8 -2 9 4 16 11 16 8 0 14 -4 14 -9z m-450 -53 c0 -8 -2 -15
-4 -15 -2 0 -6 7 -10 15 -3 8 -1 15 4 15 6 0 10 -7 10 -15z m-47 -10 c-3 -9
-8 -14 -10 -11 -3 3 -2 9 2 15 9 16 15 13 8 -4z m247 1 c0 -2 -7 -7 -16 -10
-8 -3 -12 -2 -9 4 6 10 25 14 25 6z m-103 -31 c0 -8 -4 -15 -9 -15 -10 0 -11
14 -1 23 9 10 10 9 10 -8z m-171 -47 c4 -5 13 -3 21 3 7 7 13 7 13 2 0 -5 -11
-15 -24 -21 -20 -9 -25 -8 -30 5 -6 14 -8 14 -24 0 -18 -16 -45 -17 -59 -2 -4
4 -2 5 5 1 7 -4 14 -1 17 6 6 15 68 19 81 6z m79 -8 c3 -5 2 -10 -4 -10 -5 0
-13 5 -16 10 -3 6 -2 10 4 10 5 0 13 -4 16 -10z m-465 -10 c0 -5 -5 -10 -11
-10 -5 0 -7 5 -4 10 3 6 8 10 11 10 2 0 4 -4 4 -10z m-415 -130 c1 -17 0 -28
-3 -25 -8 8 -32 -16 -26 -26 3 -5 0 -9 -5 -9 -6 0 -11 5 -11 11 0 8 -4 8 -14
0 -10 -8 -16 -9 -21 -1 -3 5 -11 10 -16 10 -6 0 -7 -5 -3 -12 4 -6 3 -9 -2 -5
-5 3 -18 -1 -29 -9 -17 -13 -17 -14 -1 -14 9 0 14 -5 11 -10 -5 -8 -11 -7 -21
1 -7 6 -11 15 -8 20 3 5 1 9 -5 9 -5 0 -13 -5 -16 -10 -4 -6 -10 -8 -15 -5 -5
3 -12 1 -15 -5 -5 -8 -11 -7 -21 1 -13 11 -28 6 -30 -9 0 -4 -4 -15 -8 -24 -7
-16 -9 -16 -33 0 -34 22 -50 23 -64 6 -8 -10 -8 -14 -1 -14 6 0 9 -7 5 -16 -4
-10 -9 -12 -16 -5 -7 7 -17 7 -30 -1 -17 -9 -24 -7 -40 13 -18 22 -19 22 -13
3 8 -27 -12 -44 -39 -33 -18 7 -16 9 14 13 5 0 13 5 18 10 4 5 3 6 -3 3 -7 -4
-10 3 -8 19 1 17 -2 24 -10 21 -7 -3 -13 1 -13 9 0 12 5 11 25 -2 28 -18 44
-10 17 9 -15 12 -15 14 -1 14 8 0 18 -9 22 -19 3 -10 10 -16 15 -12 6 4 6 11
-2 20 -6 8 -9 17 -5 21 3 3 6 1 6 -7 0 -9 3 -10 14 -1 10 9 15 8 19 -2 6 -15
60 -18 73 -4 4 4 2 7 -4 7 -7 0 -12 8 -12 18 0 14 2 14 9 3 11 -17 39 -23 47
-10 3 5 -1 9 -8 9 -9 0 -9 3 2 10 22 14 31 12 28 -6 -2 -10 3 -19 10 -21 7 -3
11 1 10 8 -2 9 7 13 25 13 16 -1 26 3 24 10 -2 6 -17 10 -33 9 -28 -2 -28 -2
-4 6 14 4 30 4 37 -1 7 -5 13 -4 17 4 3 7 3 2 -1 -12 -5 -22 -4 -23 10 -12 9
8 14 19 11 27 -3 7 -1 16 5 20 7 4 8 0 4 -11 -5 -13 -3 -15 7 -9 8 5 11 4 7
-2 -9 -15 24 -26 37 -13 7 7 6 14 -3 23 -11 10 -13 9 -8 -5 4 -10 2 -18 -4
-18 -6 0 -9 8 -7 18 3 17 10 18 71 8 25 -4 27 -2 21 17 -3 12 -3 19 1 15 5 -5
9 -21 10 -38z m-335 -50 c0 -5 -5 -10 -11 -10 -5 0 -7 5 -4 10 3 6 8 10 11 10
2 0 4 -4 4 -10z m-13045 -209 c-3 -5 4 -12 15 -16 25 -8 25 -20 1 -37 -11 -8
-17 -22 -15 -35 2 -13 -1 -23 -7 -23 -5 0 -7 5 -4 10 3 6 1 10 -5 10 -7 0 -8
6 -1 18 8 14 5 18 -12 19 -17 2 -19 0 -7 -7 11 -7 12 -12 4 -20 -8 -8 -13 -6
-17 9 -3 15 1 25 15 32 11 6 17 13 14 16 -3 4 -1 12 5 20 13 15 23 18 14 4z
m59 -2 c3 -3 -4 -5 -14 -6 -11 -1 -22 2 -24 6 -5 8 30 8 38 0z m-965 -35 c4 3
7 -7 6 -22 0 -27 -16 -34 -24 -11 -2 7 1 9 8 5 7 -5 9 -1 4 10 -5 14 -8 13
-20 -7 -8 -13 -12 -16 -9 -7 3 12 1 15 -9 12 -8 -3 -13 -11 -12 -17 3 -14 -62
-18 -70 -3 -3 6 -3 8 2 4 4 -4 15 -3 22 4 11 9 16 9 22 -1 6 -10 10 -9 15 4 3
9 4 21 1 25 -3 5 6 7 20 4 16 -3 25 0 26 8 0 10 2 10 6 0 2 -6 8 -10 12 -8z
m101 -1 c0 -3 -7 -3 -15 1 -9 3 -19 -3 -26 -17 -11 -20 -11 -21 4 -8 15 11 17
11 17 -1 0 -7 -9 -14 -21 -15 -15 -1 -19 2 -15 15 5 13 3 13 -9 -2 -8 -11 -15
-14 -15 -8 0 19 4 27 13 25 4 -2 7 2 7 8 0 5 4 8 9 4 5 -3 12 -1 16 4 5 10 35
4 35 -6z m383 2 c15 3 16 1 5 -13 -11 -14 -10 -15 5 -9 10 4 23 7 28 7 6 0 8
4 4 9 -3 5 -1 12 4 15 5 4 13 1 17 -5 4 -8 9 -7 15 2 7 11 9 11 9 1 0 -7 4
-11 9 -7 6 3 15 -4 22 -16 10 -19 9 -25 -7 -36 -15 -11 -19 -11 -27 2 -7 13
-12 13 -39 -7 -18 -12 -28 -17 -24 -10 12 19 -3 35 -20 21 -11 -9 -18 -9 -26
-1 -7 7 -18 8 -27 3 -18 -9 -78 -8 -88 2 -3 4 -12 2 -20 -4 -9 -9 -17 -8 -27
0 -16 13 -32 -1 -21 -19 3 -5 -7 -2 -24 7 -16 10 -27 22 -23 27 3 6 7 5 10 -2
2 -7 9 -9 15 -5 7 4 14 8 17 8 25 4 49 18 44 27 -4 7 -2 8 5 4 6 -4 9 -11 6
-16 -3 -4 2 -10 9 -13 10 -4 14 0 11 12 -3 15 4 17 41 16 25 -1 47 2 50 7 4 5
10 5 17 0 7 -5 20 -8 30 -7z m163 -20 c-1 -11 5 -19 12 -17 19 3 14 -6 -9 -19
-13 -6 -19 -7 -15 -1 3 6 2 12 -4 14 -6 2 -12 12 -14 23 -3 15 1 21 14 21 11
0 17 -8 16 -21z m678 3 c-7 -11 4 -10 28 3 12 6 18 7 14 1 -3 -5 1 -12 9 -16
8 -3 14 0 12 6 -2 14 33 17 51 4 8 -5 12 -4 12 5 0 12 2 12 9 1 4 -8 12 -14
16 -14 4 0 12 6 16 14 7 10 9 10 9 0 0 -7 5 -10 10 -7 6 3 10 -1 10 -10 0 -9
5 -13 10 -10 6 4 8 10 5 15 -3 5 0 12 6 16 8 4 9 3 5 -4 -10 -16 16 -15 33 1
11 10 13 10 7 0 -4 -7 -3 -13 1 -13 5 0 15 6 22 13 11 10 13 10 7 0 -5 -8 -1
-13 9 -13 10 0 13 5 9 12 -4 7 -3 8 4 4 6 -4 9 -13 6 -20 -3 -7 3 -15 13 -18
23 -6 43 1 43 14 0 6 -6 6 -15 -2 -8 -7 -15 -11 -16 -9 -6 30 -5 37 5 35 22
-3 37 -18 32 -31 -2 -7 1 -16 8 -18 9 -4 11 2 8 19 -2 14 0 24 7 24 7 0 9 -4
6 -10 -3 -5 -3 -16 2 -22 18 -29 12 -38 -16 -23 -25 13 -30 12 -48 -6 -18 -19
-21 -19 -27 -4 -5 13 -2 16 11 11 11 -4 8 1 -7 13 l-25 20 -27 -32 c-15 -18
-27 -27 -28 -20 0 6 -3 20 -6 30 -6 15 -4 16 7 6 16 -16 29 -17 29 -2 0 5 -5
7 -12 3 -6 -4 -8 -3 -4 4 3 6 -1 9 -11 7 -10 -2 -18 -4 -18 -5 0 -7 -36 -6
-41 1 -3 5 -11 6 -17 2 -22 -13 -49 -10 -60 8 -10 17 -37 16 -37 -2 0 -4 6 -6
14 -3 17 6 41 -32 27 -41 -5 -3 -13 4 -16 15 -5 16 -10 19 -20 10 -10 -8 -19
-8 -35 0 -11 6 -25 8 -30 5 -6 -4 -12 0 -15 7 -6 16 -45 22 -45 7 0 -5 -5 -9
-12 -9 -6 0 -8 3 -5 7 4 3 3 11 -2 17 -7 8 2 11 29 11 21 0 36 -3 34 -7z
m-1205 -17 c9 -16 8 -18 -9 -14 -11 3 -20 12 -20 19 0 20 18 17 29 -5z m-279
1 c0 -13 -12 -22 -22 -16 -10 6 -1 24 13 24 5 0 9 -4 9 -8z m877 -13 c1 -12
-1 -19 -4 -15 -3 3 -12 1 -20 -6 -12 -10 -12 -7 -2 15 15 32 24 34 26 6z m114
4 c12 -16 12 -17 -2 -6 -9 7 -20 9 -24 5 -5 -4 -5 -1 -1 6 9 16 11 15 27 -5z
m-1061 -18 c7 -8 8 -15 2 -15 -5 0 -15 7 -22 15 -7 8 -8 15 -2 15 5 0 15 -7
22 -15z"/>
<path d="M16896 14328 c3 -5 9 -7 12 -4 3 3 13 0 21 -8 18 -17 48 -5 36 13 -5
8 -11 9 -19 2 -7 -6 -16 -8 -20 -4 -11 11 -37 12 -30 1z"/>
<path d="M17016 13929 c-15 -23 -12 -44 5 -34 5 4 13 15 19 25 15 28 -6 35
-24 9z m14 -9 c-6 -11 -13 -20 -16 -20 -2 0 0 9 6 20 6 11 13 20 16 20 2 0 0
-9 -6 -20z"/>
<path d="M17000 13869 c-11 -6 -12 -9 -2 -9 7 0 11 -4 7 -9 -3 -5 0 -13 6 -16
7 -5 4 -14 -9 -29 -25 -27 -24 -53 1 -60 14 -3 17 -2 9 6 -15 15 4 51 21 41 7
-4 7 0 -2 10 -7 9 -10 17 -6 17 4 0 3 6 -4 13 -7 10 -7 17 0 24 14 14 -3 24
-21 12z m20 -63 c0 -2 -8 -10 -17 -17 -16 -13 -17 -12 -4 4 13 16 21 21 21 13z"/>
<path d="M16990 13710 c0 -5 5 -10 11 -10 5 0 7 5 4 10 -3 6 -8 10 -11 10 -2
0 -4 -4 -4 -10z"/>
<path d="M17815 7240 c-6 -10 -4 -11 25 -14 8 0 14 -7 12 -15 -1 -7 3 -19 9
-27 7 -8 12 -27 13 -42 1 -15 5 -33 9 -39 9 -14 28 -18 26 -5 -4 21 2 32 14
26 8 -5 8 -2 -2 9 -7 9 -10 17 -5 17 4 0 -3 11 -16 25 -13 14 -20 25 -15 25 5
0 -6 11 -25 25 -39 29 -37 28 -45 15z m73 -61 c19 -22 20 -27 8 -32 -10 -4
-13 -1 -10 7 3 7 -2 19 -11 26 -8 7 -15 17 -15 23 0 6 1 8 3 6 1 -2 12 -16 25
-30z m22 -43 c0 -2 -8 -10 -17 -17 -16 -13 -17 -12 -4 4 13 16 21 21 21 13z"/>
<path d="M17883 7068 c-6 -7 -13 -21 -16 -31 -6 -15 -4 -16 13 -7 10 5 22 15
25 20 4 6 10 8 15 5 5 -3 12 0 16 6 4 7 3 9 -4 5 -6 -3 -13 -2 -17 4 -8 14
-21 13 -32 -2z"/>
<path d="M17866 6974 c-9 -23 -2 -28 13 -10 7 8 8 17 3 20 -6 3 -13 -1 -16
-10z"/>
<path d="M17819 6928 c-1 -7 -1 -18 0 -25 2 -16 -36 -36 -52 -27 -13 8 22 -36
38 -48 9 -7 55 28 53 41 -2 18 3 24 11 13 7 -11 9 -10 14 3 4 9 3 13 -2 10 -5
-3 -16 3 -23 13 -19 26 -38 36 -39 20z m30 -44 c-6 -8 -8 -14 -4 -14 5 0 0 -9
-10 -20 -17 -19 -41 -18 -30 1 4 5 0 9 -7 9 -12 1 17 23 35 26 4 1 10 2 14 3
4 0 -2 8 -13 17 -18 14 -18 15 4 4 19 -9 21 -14 11 -26z"/>
<path d="M17819 6878 c0 -2 -2 -11 -4 -21 -3 -15 -1 -16 11 -6 7 6 11 15 8 20
-5 9 -13 12 -15 7z"/>
<path d="M2750 6976 c14 -14 38 -16 43 -2 3 7 -7 11 -24 11 -19 1 -25 -3 -19
-9z"/>
<path d="M16544 5252 c4 -7 3 -19 -4 -27 -7 -8 -7 -15 -1 -19 5 -4 12 -2 16 4
4 6 10 8 15 5 10 -6 35 23 26 32 -3 3 -6 1 -6 -6 0 -7 -9 -5 -27 6 -16 10 -24
12 -19 5z m32 -24 c4 -7 4 -10 -1 -6 -4 4 -15 2 -24 -5 -14 -11 -14 -10 -2 6
16 20 18 21 27 5z"/>
<path d="M16472 5217 c-19 -23 6 -34 26 -12 10 10 12 15 5 11 -6 -3 -13 -1
-15 5 -2 7 -8 6 -16 -4z"/>
<path d="M16394 5193 c2 -10 6 -17 9 -15 10 3 15 4 29 6 6 0 13 8 15 16 4 12
3 12 -5 1 -8 -11 -10 -11 -15 0 -5 12 -6 12 -6 0 -1 -10 -4 -11 -15 -2 -12 10
-14 9 -12 -6z"/>
<path d="M16345 5190 c-4 -6 -10 -8 -15 -5 -4 3 -13 -2 -20 -10 -7 -8 -10 -16
-6 -16 3 -1 9 -2 14 -3 4 -1 13 -5 20 -9 6 -5 13 -6 13 -3 1 3 2 9 3 14 1 4 5
12 9 19 4 6 3 14 -2 17 -5 4 -12 2 -16 -4z m6 -13 c-6 -8 -7 -18 -3 -23 4 -4
0 -3 -9 4 -9 6 -20 8 -24 4 -5 -4 -5 -1 -1 6 4 7 11 10 16 7 5 -3 11 -1 15 5
3 5 9 10 12 10 3 0 0 -6 -6 -13z"/>
<path d="M16214 5171 c7 -10 -18 -34 -27 -25 -5 5 -4 -4 2 -35 1 -2 7 1 14 6
6 6 20 9 30 8 9 -2 15 1 12 5 -3 5 -1 11 5 15 5 3 10 12 10 18 0 8 -3 8 -9 -1
-7 -11 -9 -11 -14 2 -4 9 -11 16 -17 16 -6 0 -9 -4 -6 -9z m17 -25 c-1 -3 -4
-6 -8 -7 -5 0 -15 -6 -23 -12 -8 -6 -6 -2 4 11 17 20 29 23 27 8z"/>
<path d="M3222 4975 c4 -5 4 -13 -2 -19 -6 -8 -3 -12 10 -13 29 -2 34 14 8 28
-13 6 -20 8 -16 4z"/>
<path d="M2765 4950 c-3 -6 -10 -8 -15 -5 -5 3 -11 1 -15 -5 -3 -5 -11 -10
-16 -10 -6 0 -8 4 -5 9 5 8 -2 8 -33 2 -2 -1 2 -7 8 -14 8 -10 56 -16 56 -7 0
1 13 4 28 6 22 4 27 2 21 -8 -4 -7 -3 -9 1 -5 5 4 10 15 11 23 1 9 0 13 -3 10
-4 -3 -12 -1 -19 5 -8 7 -14 7 -19 -1z"/>
<path d="M2863 4954 c8 -14 -16 -37 -28 -26 -5 4 -5 2 -2 -5 6 -9 34 -11 45
-3 7 7 28 4 33 -3 4 -5 10 -4 13 2 4 6 2 11 -4 11 -6 0 -9 4 -6 9 4 5 -2 8
-11 6 -10 -1 -24 3 -32 9 -11 8 -13 8 -8 0z"/>
<path d="M3666 4922 c-2 -4 4 -8 14 -8 10 0 16 4 14 8 -3 4 -9 8 -14 8 -5 0
-11 -4 -14 -8z"/>
<path d="M3806 4918 c3 -5 10 -6 15 -3 13 9 11 12 -6 12 -8 0 -12 -4 -9 -9z"/>
<path d="M16755 14520 c3 -5 8 -10 11 -10 2 0 4 5 4 10 0 6 -5 10 -11 10 -5 0
-7 -4 -4 -10z"/>
<path d="M16450 14499 c0 -5 5 -7 10 -4 6 3 10 8 10 11 0 2 -4 4 -10 4 -5 0
-10 -5 -10 -11z"/>
<path d="M16534 14485 c0 -16 4 -21 15 -17 10 4 11 7 3 10 -7 2 -10 8 -7 12 3
5 2 11 -3 14 -4 2 -8 -6 -8 -19z"/>
<path d="M16920 14500 c-9 -6 -10 -10 -3 -10 6 0 15 5 18 10 8 12 4 12 -15 0z"/>
<path d="M16573 14471 c0 -11 5 -18 9 -15 4 3 5 11 1 19 -7 21 -12 19 -10 -4z"/>
<path d="M16732 14481 c-11 -7 -11 -9 0 -14 9 -3 15 1 15 9 0 8 -1 14 -1 14
-1 0 -7 -4 -14 -9z"/>
<path d="M16656 14463 c-6 -14 -5 -15 5 -6 7 7 10 15 7 18 -3 3 -9 -2 -12 -12z"/>
<path d="M16830 14470 c-9 -6 -10 -10 -3 -10 6 0 15 5 18 10 8 12 4 12 -15 0z"/>
<path d="M16440 14460 c-8 -5 -12 -12 -9 -15 4 -3 12 1 19 10 14 17 11 19 -10
5z"/>
<path d="M16708 14443 c6 -2 18 -2 25 0 6 3 1 5 -13 5 -14 0 -19 -2 -12 -5z"/>
<path d="M17000 14415 c-11 -13 -15 -13 -21 -3 -6 10 -9 10 -9 1 0 -7 10 -17
21 -24 16 -8 20 -8 14 0 -4 7 -1 18 5 26 7 8 10 15 7 15 -2 0 -10 -7 -17 -15z"/>
<path d="M17040 14420 c-9 -6 -10 -10 -3 -10 6 0 15 5 18 10 8 12 4 12 -15 0z"/>
<path d="M17052 14378 c2 -7 -3 -12 -9 -10 -7 1 -13 -2 -13 -8 0 -14 16 -12
29 4 8 10 9 16 1 21 -6 4 -9 1 -8 -7z"/>
<path d="M17096 14378 c3 -5 10 -6 15 -3 13 9 11 12 -6 12 -8 0 -12 -4 -9 -9z"/>
<path d="M17113 14325 c0 -8 4 -12 9 -9 5 3 6 10 3 15 -9 13 -12 11 -12 -6z"/>
<path d="M17075 14320 c-3 -5 -1 -10 4 -10 6 0 11 5 11 10 0 6 -2 10 -4 10 -3
0 -8 -4 -11 -10z"/>
<path d="M17030 14315 c0 -5 5 -17 10 -25 5 -8 10 -10 10 -5 0 6 -5 17 -10 25
-5 8 -10 11 -10 5z"/>
<path d="M17110 14286 c0 -2 7 -7 16 -10 8 -3 12 -2 9 4 -6 10 -25 14 -25 6z"/>
<path d="M16950 14251 c0 -5 5 -13 10 -16 6 -3 10 -2 10 4 0 5 -4 13 -10 16
-5 3 -10 2 -10 -4z"/>
<path d="M17106 14221 c-3 -4 4 -7 14 -6 27 2 33 10 10 12 -11 1 -22 -2 -24
-6z"/>
<path d="M16977 14203 c-2 -4 2 -21 9 -38 7 -16 14 -28 14 -25 8 34 7 50 -4
59 -8 7 -16 8 -19 4z"/>
<path d="M17068 14193 c6 -2 9 -10 6 -15 -4 -7 -2 -8 5 -4 13 9 5 26 -12 25
-9 0 -8 -2 1 -6z"/>
<path d="M17130 14179 c0 -5 5 -7 10 -4 6 3 10 8 10 11 0 2 -4 4 -10 4 -5 0
-10 -5 -10 -11z"/>
<path d="M17091 14154 c0 -11 3 -14 6 -6 3 7 2 16 -1 19 -3 4 -6 -2 -5 -13z"/>
<path d="M17113 14145 c0 -8 4 -12 9 -9 5 3 6 10 3 15 -9 13 -12 11 -12 -6z"/>
<path d="M16985 14121 c-3 -5 -2 -12 3 -15 5 -3 9 1 9 9 0 17 -3 19 -12 6z"/>
<path d="M17106 14055 c5 -12 4 -16 -3 -12 -13 8 -11 -19 2 -30 4 -4 5 -3 1 4
-3 6 1 16 9 21 15 8 15 10 0 22 -13 11 -14 10 -9 -5z"/>
<path d="M16985 14051 c-3 -5 -1 -12 4 -15 5 -3 11 1 15 9 6 16 -9 21 -19 6z"/>
<path d="M17145 14040 c-3 -6 1 -7 9 -4 18 7 21 14 7 14 -6 0 -13 -4 -16 -10z"/>
<path d="M17226 14038 c3 -5 10 -6 15 -3 13 9 11 12 -6 12 -8 0 -12 -4 -9 -9z"/>
<path d="M16986 14002 c-3 -5 1 -15 9 -22 16 -14 20 -3 6 19 -5 8 -11 9 -15 3z"/>
<path d="M17115 13971 c-3 -5 -2 -12 3 -15 5 -3 9 1 9 9 0 17 -3 19 -12 6z"/>
<path d="M17060 13965 c0 -7 30 -13 34 -7 3 4 -4 9 -15 9 -10 1 -19 0 -19 -2z"/>
<path d="M17147 13959 c7 -7 15 -10 18 -7 3 3 -2 9 -12 12 -14 6 -15 5 -6 -5z"/>
<path d="M17109 13932 c7 -13 6 -23 -2 -32 -10 -12 -9 -12 5 -1 14 10 15 18 7
32 -5 10 -12 19 -15 19 -2 0 0 -8 5 -18z"/>
<path d="M17070 13900 c0 -5 5 -10 11 -10 5 0 7 5 4 10 -3 6 -8 10 -11 10 -2
0 -4 -4 -4 -10z"/>
<path d="M17226 13882 c-3 -5 1 -9 9 -9 8 0 12 4 9 9 -3 4 -7 8 -9 8 -2 0 -6
-4 -9 -8z"/>
<path d="M17081 13844 c0 -11 3 -14 6 -6 3 7 2 16 -1 19 -3 4 -6 -2 -5 -13z"/>
<path d="M17104 13805 c-19 -15 -19 -15 1 -8 18 6 19 5 5 -13 -11 -15 -11 -16
0 -7 11 11 24 43 16 43 -1 0 -11 -7 -22 -15z"/>
<path d="M17110 13750 c-9 -6 -10 -10 -3 -10 6 0 15 5 18 10 8 12 4 12 -15 0z"/>
<path d="M17096 13718 c3 -4 11 -5 19 -1 21 7 19 12 -4 10 -11 0 -18 -5 -15
-9z"/>
<path d="M17081 13674 c0 -11 3 -14 6 -6 3 7 2 16 -1 19 -3 4 -6 -2 -5 -13z"/>
<path d="M17108 13623 c7 -3 16 -2 19 1 4 3 -2 6 -13 5 -11 0 -14 -3 -6 -6z"/>
<path d="M17096 13598 c3 -5 10 -6 15 -3 13 9 11 12 -6 12 -8 0 -12 -4 -9 -9z"/>
<path d="M17072 13581 c-11 -6 -10 -10 4 -15 9 -4 22 -2 28 4 8 8 6 9 -8 4
-13 -5 -17 -4 -12 4 8 14 6 15 -12 3z"/>
<path d="M17119 13553 c-13 -16 -12 -17 4 -4 16 13 21 21 13 21 -2 0 -10 -8
-17 -17z"/>
<path d="M17156 13562 c-3 -5 1 -9 9 -9 8 0 12 4 9 9 -3 4 -7 8 -9 8 -2 0 -6
-4 -9 -8z"/>
<path d="M17071 13523 c-1 -25 14 -39 25 -22 4 7 3 9 -4 5 -6 -3 -12 3 -15 16
-4 23 -4 23 -6 1z"/>
<path d="M17115 13513 c1 -10 -2 -25 -8 -33 -9 -12 -9 -13 3 -3 16 15 24 53
11 53 -5 0 -8 -8 -6 -17z"/>
<path d="M16990 13486 c0 -2 7 -9 15 -16 13 -11 14 -10 9 4 -5 14 -24 23 -24
12z"/>
<path d="M17091 13451 c-8 -5 -9 -11 -3 -15 5 -3 12 1 16 9 6 17 6 18 -13 6z"/>
<path d="M17225 13440 c-3 -6 1 -7 9 -4 18 7 21 14 7 14 -6 0 -13 -4 -16 -10z"/>
<path d="M17107 13427 c-3 -8 1 -14 8 -14 7 0 11 6 8 14 -3 7 -6 13 -8 13 -2
0 -5 -6 -8 -13z"/>
<path d="M17070 13420 c0 -5 5 -10 11 -10 5 0 7 5 4 10 -3 6 -8 10 -11 10 -2
0 -4 -4 -4 -10z"/>
<path d="M17095 13319 c-6 -8 -4 -10 5 -4 10 6 12 4 6 -11 -6 -15 -5 -17 5 -6
9 9 10 15 2 23 -8 8 -13 7 -18 -2z"/>
<path d="M17106 13259 c2 -4 13 -7 24 -6 23 2 17 10 -10 12 -10 1 -17 -2 -14
-6z"/>
<path d="M2075 8409 c-4 -6 -5 -12 -2 -15 2 -3 7 2 10 11 7 17 1 20 -8 4z"/>
<path d="M2080 8260 c-9 -6 -10 -10 -3 -10 6 0 15 5 18 10 8 12 4 12 -15 0z"/>
<path d="M2147 7599 c7 -7 15 -10 18 -7 3 3 -2 9 -12 12 -14 6 -15 5 -6 -5z"/>
<path d="M17573 7505 c0 -8 4 -12 9 -9 5 3 6 10 3 15 -9 13 -12 11 -12 -6z"/>
<path d="M17397 7483 c-10 -9 -9 -23 1 -23 5 0 9 7 9 15 0 17 -1 18 -10 8z"/>
<path d="M17434 7483 c3 -3 16 -7 28 -7 13 -1 30 -5 38 -10 12 -7 13 -6 3 4
-7 8 -27 15 -44 16 -17 2 -28 0 -25 -3z"/>
<path d="M17516 7478 c3 -5 10 -6 15 -3 13 9 11 12 -6 12 -8 0 -12 -4 -9 -9z"/>
<path d="M17545 7460 c-3 -6 1 -7 9 -4 18 7 21 14 7 14 -6 0 -13 -4 -16 -10z"/>
<path d="M17450 7456 c0 -2 8 -10 18 -17 15 -13 16 -12 3 4 -13 16 -21 21 -21
13z"/>
<path d="M17415 7440 c3 -5 -3 -10 -14 -10 -11 0 -23 -4 -26 -10 -8 -13 38 -8
47 5 11 14 10 25 -3 25 -5 0 -7 -4 -4 -10z"/>
<path d="M17495 7439 c-4 -6 -5 -12 -2 -15 2 -3 7 2 10 11 7 17 1 20 -8 4z"/>
<path d="M17565 7440 c-3 -6 1 -7 9 -4 18 7 21 14 7 14 -6 0 -13 -4 -16 -10z"/>
<path d="M17641 7436 c-8 -10 -9 -16 -1 -21 6 -4 9 -1 8 7 -2 7 3 12 10 10 8
-1 11 2 7 8 -8 13 -10 13 -24 -4z"/>
<path d="M17699 7433 c-13 -16 -12 -17 4 -4 9 7 17 15 17 17 0 8 -8 3 -21 -13z"/>
<path d="M17735 7441 c-3 -5 -2 -12 3 -15 5 -3 9 1 9 9 0 17 -3 19 -12 6z"/>
<path d="M17447 7424 c4 -12 3 -15 -5 -10 -7 4 -12 2 -12 -4 0 -7 7 -9 16 -6
9 4 23 1 30 -5 8 -6 14 -8 14 -3 0 5 -12 17 -25 27 -23 16 -24 16 -18 1z"/>
<path d="M17600 7431 c0 -7 -5 -9 -11 -6 -6 4 -13 -2 -16 -14 -3 -12 -10 -21
-15 -21 -5 0 -7 4 -4 8 2 4 -10 9 -27 10 l-32 2 34 -15 c18 -8 37 -12 42 -9 5
2 17 0 28 -5 15 -8 20 -7 25 5 8 21 8 24 -5 24 -5 0 -7 -5 -3 -11 4 -7 -1 -10
-11 -7 -10 1 -20 9 -23 17 -3 8 0 11 6 7 12 -7 28 12 18 21 -3 4 -6 1 -6 -6z"/>
<path d="M17660 7401 c0 -11 4 -22 9 -25 4 -3 6 6 3 19 -5 30 -12 33 -12 6z"/>
<path d="M17712 7405 c3 -3 16 -8 28 -10 12 -2 20 -1 16 2 -4 4 -16 8 -28 10
-12 2 -19 1 -16 -2z"/>
<path d="M17933 7349 c-2 -23 3 -25 10 -4 4 8 3 16 -1 19 -4 3 -9 -4 -9 -15z"/>
<path d="M17874 7346 c1 -8 5 -18 8 -22 4 -3 5 1 4 10 -1 8 -5 18 -8 22 -4 3
-5 -1 -4 -10z"/>
<path d="M17700 7320 c8 -5 20 -10 25 -10 6 0 3 5 -5 10 -8 5 -19 10 -25 10
-5 0 -3 -5 5 -10z"/>
<path d="M17960 7175 c0 -5 5 -17 10 -25 5 -8 10 -10 10 -5 0 6 -5 17 -10 25
-5 8 -10 11 -10 5z"/>
<path d="M18030 7105 c0 -7 30 -13 34 -7 3 4 -4 9 -15 9 -10 1 -19 0 -19 -2z"/>
<path d="M18020 7086 c0 -2 8 -10 18 -17 15 -13 16 -12 3 4 -13 16 -21 21 -21
13z"/>
<path d="M2335 7020 c3 -5 8 -10 11 -10 2 0 4 5 4 10 0 6 -5 10 -11 10 -5 0
-7 -4 -4 -10z"/>
<path d="M18050 7019 c0 -5 5 -7 10 -4 6 3 10 8 10 11 0 2 -4 4 -10 4 -5 0
-10 -5 -10 -11z"/>
<path d="M17996 7007 c3 -10 9 -15 12 -12 3 3 0 11 -7 18 -10 9 -11 8 -5 -6z"/>
<path d="M2428 6988 c-10 -10 -14 -18 -9 -18 10 0 36 29 30 34 -2 1 -12 -6
-21 -16z"/>
<path d="M2470 6990 c-13 -8 -12 -10 3 -10 9 0 17 5 17 10 0 12 -1 12 -20 0z"/>
<path d="M18046 6982 c-3 -5 1 -9 9 -9 8 0 12 4 9 9 -3 4 -7 8 -9 8 -2 0 -6
-4 -9 -8z"/>
<path d="M2476 6961 c9 -9 34 -9 34 -1 0 5 -9 8 -20 7 -10 -1 -17 -3 -14 -6z"/>
<path d="M2516 6942 c-2 -4 0 -14 6 -22 8 -12 9 -11 4 4 -5 14 -2 17 9 12 9
-3 13 -2 10 4 -7 12 -22 13 -29 2z"/>
<path d="M2710 6941 c0 -5 7 -11 14 -14 10 -4 13 -1 9 9 -6 15 -23 19 -23 5z"/>
<path d="M2656 6923 c-6 -14 -5 -15 5 -6 7 7 10 15 7 18 -3 3 -9 -2 -12 -12z"/>
<path d="M17994 6931 c4 -5 0 -11 -6 -14 -7 -3 -3 -4 9 -4 17 1 19 4 11 14
-12 15 -22 18 -14 4z"/>
<path d="M2493 6911 c0 -11 5 -18 9 -15 4 3 5 11 1 19 -7 21 -12 19 -10 -4z"/>
<path d="M18033 6915 c0 -8 4 -12 9 -9 5 3 6 10 3 15 -9 13 -12 11 -12 -6z"/>
<path d="M2559 6918 c-5 -18 -6 -38 -1 -34 7 8 12 36 6 36 -2 0 -4 -1 -5 -2z"/>
<path d="M2760 6911 c0 -6 4 -13 10 -16 6 -3 7 1 4 9 -7 18 -14 21 -14 7z"/>
<path d="M17936 6885 c-3 -8 -1 -15 4 -15 6 0 10 7 10 15 0 8 -2 15 -4 15 -2
0 -6 -7 -10 -15z"/>
<path d="M2635 6881 c-3 -5 -2 -12 3 -15 5 -3 9 1 9 9 0 17 -3 19 -12 6z"/>
<path d="M17154 6846 c-1 -17 1 -23 3 -13 2 9 8 15 12 13 4 -3 7 3 7 13 0 31
-21 19 -22 -13z"/>
<path d="M17226 6854 c-11 -7 -16 -17 -12 -21 4 -4 10 -3 14 2 4 6 16 12 26
13 17 3 18 2 7 -12 -8 -9 -11 -19 -8 -23 4 -3 9 2 13 11 3 9 10 14 14 11 4 -3
11 2 14 11 3 8 2 12 -4 9 -5 -3 -18 -2 -27 4 -13 6 -24 5 -37 -5z"/>
<path d="M17950 6857 c0 -2 6 -10 14 -16 11 -9 16 -9 22 1 4 7 4 10 -1 6 -4
-4 -14 -3 -22 3 -7 6 -13 9 -13 6z"/>
<path d="M17194 6823 c6 -19 4 -21 -15 -18 -12 2 -18 1 -15 -3 4 -4 11 -7 14
-7 4 0 12 -4 19 -8 13 -8 11 38 -2 51 -4 4 -4 -3 -1 -15z"/>
<path d="M17947 6819 c7 -7 15 -10 18 -7 3 3 -2 9 -12 12 -14 6 -15 5 -6 -5z"/>
<path d="M17233 6807 c3 -8 0 -21 -6 -28 -10 -11 -9 -11 5 0 9 7 22 10 28 6
17 -11 11 0 -12 19 -16 14 -20 15 -15 3z"/>
<path d="M17293 6802 c1 -12 6 -18 15 -15 7 3 10 9 5 12 -4 3 -11 10 -15 15
-4 4 -6 -1 -5 -12z"/>
<path d="M17425 6809 c4 -5 1 -16 -5 -24 -7 -8 -8 -15 -4 -15 5 0 15 9 21 19
10 16 9 20 -3 25 -9 3 -12 2 -9 -5z"/>
<path d="M17856 6804 c-4 -9 -4 -19 -1 -22 3 -3 5 0 5 7 0 7 4 9 10 6 6 -3 7
1 4 9 -8 20 -10 20 -18 0z"/>
<path d="M17343 6793 c-9 -7 -12 -13 -6 -13 7 0 15 5 18 10 4 7 12 7 24 0 18
-9 31 -5 31 11 0 11 -48 5 -67 -8z"/>
<path d="M17484 6803 c2 -3 -2 -19 -9 -37 -12 -29 -12 -32 5 -32 14 0 16 3 8
13 -7 9 -6 19 5 36 13 20 13 24 1 24 -8 0 -12 -2 -10 -4z"/>
<path d="M17830 6781 c0 -6 4 -13 10 -16 6 -3 7 1 4 9 -7 18 -14 21 -14 7z"/>
<path d="M17170 6759 c0 -5 5 -7 10 -4 6 3 10 8 10 11 0 2 -4 4 -10 4 -5 0
-10 -5 -10 -11z"/>
<path d="M17266 6758 c3 -5 10 -6 15 -3 13 9 11 12 -6 12 -8 0 -12 -4 -9 -9z"/>
<path d="M17756 6755 c-11 -8 -16 -15 -10 -15 5 0 18 7 28 15 11 8 16 15 10
15 -5 0 -18 -7 -28 -15z"/>
<path d="M17886 6762 c-3 -5 1 -9 9 -9 8 0 12 4 9 9 -3 4 -7 8 -9 8 -2 0 -6
-4 -9 -8z"/>
<path d="M17295 6751 c-3 -5 -2 -12 3 -15 5 -3 9 1 9 9 0 17 -3 19 -12 6z"/>
<path d="M17800 6756 c0 -2 7 -7 16 -10 8 -3 12 -2 9 4 -6 10 -25 14 -25 6z"/>
<path d="M17215 6741 c-3 -5 -2 -12 3 -15 5 -3 9 1 9 9 0 17 -3 19 -12 6z"/>
<path d="M17347 6739 c7 -7 15 -10 18 -7 3 3 -2 9 -12 12 -14 6 -15 5 -6 -5z"/>
<path d="M17774 6739 c-4 -7 -3 -9 4 -5 5 3 13 0 15 -6 4 -9 6 -10 6 -1 1 17
-16 25 -25 12z"/>
<path d="M17915 6731 c-3 -5 -2 -12 3 -15 5 -3 9 1 9 9 0 17 -3 19 -12 6z"/>
<path d="M17550 6721 c0 -6 4 -13 10 -16 6 -3 7 1 4 9 -7 18 -14 21 -14 7z"/>
<path d="M17670 6721 c0 -6 4 -12 8 -15 5 -3 9 1 9 9 0 8 -4 15 -9 15 -4 0 -8
-4 -8 -9z"/>
<path d="M17717 6712 c-14 -15 -14 -19 -3 -19 8 0 14 5 13 11 -1 6 4 10 11 9
6 -2 12 2 12 7 0 16 -15 12 -33 -8z"/>
<path d="M17813 6711 c0 -11 5 -18 9 -15 4 3 5 11 1 19 -7 21 -12 19 -10 -4z"/>
<path d="M17455 6700 c-3 -5 -1 -10 4 -10 6 0 11 5 11 10 0 6 -2 10 -4 10 -3
0 -8 -4 -11 -10z"/>
<path d="M17500 6706 c0 -2 8 -10 18 -17 15 -13 16 -12 3 4 -13 16 -21 21 -21
13z"/>
<path d="M17587 6699 c7 -7 15 -10 18 -7 3 3 -2 9 -12 12 -14 6 -15 5 -6 -5z"/>
<path d="M1976 6662 c-3 -5 1 -9 9 -9 8 0 12 4 9 9 -3 4 -7 8 -9 8 -2 0 -6 -4
-9 -8z"/>
<path d="M2090 6659 c0 -5 5 -7 10 -4 6 3 10 8 10 11 0 2 -4 4 -10 4 -5 0 -10
-5 -10 -11z"/>
<path d="M2210 6660 c0 -5 5 -10 11 -10 5 0 7 5 4 10 -3 6 -8 10 -11 10 -2 0
-4 -4 -4 -10z"/>
<path d="M2260 6660 c-9 -6 -10 -10 -3 -10 6 0 15 5 18 10 8 12 4 12 -15 0z"/>
<path d="M2295 6661 c-3 -5 -2 -12 3 -15 5 -3 9 1 9 9 0 17 -3 19 -12 6z"/>
<path d="M2330 6659 c0 -5 5 -7 10 -4 6 3 10 8 10 11 0 2 -4 4 -10 4 -5 0 -10
-5 -10 -11z"/>
<path d="M2535 6660 c-3 -5 -1 -10 4 -10 6 0 11 5 11 10 0 6 -2 10 -4 10 -3 0
-8 -4 -11 -10z"/>
<path d="M2570 6659 c0 -5 5 -7 10 -4 6 3 10 8 10 11 0 2 -4 4 -10 4 -5 0 -10
-5 -10 -11z"/>
<path d="M2810 6659 c0 -5 5 -7 10 -4 6 3 10 8 10 11 0 2 -4 4 -10 4 -5 0 -10
-5 -10 -11z"/>
<path d="M17590 6659 c0 -5 5 -7 10 -4 6 3 10 8 10 11 0 2 -4 4 -10 4 -5 0
-10 -5 -10 -11z"/>
<path d="M1795 6651 c-3 -5 -2 -12 3 -15 5 -3 9 1 9 9 0 17 -3 19 -12 6z"/>
<path d="M2175 6651 c-3 -5 -2 -12 3 -15 5 -3 9 1 9 9 0 17 -3 19 -12 6z"/>
<path d="M2709 6643 c-13 -16 -12 -17 4 -4 9 7 17 15 17 17 0 8 -8 3 -21 -13z"/>
<path d="M17869 6643 c-13 -16 -12 -17 4 -4 9 7 17 15 17 17 0 8 -8 3 -21 -13z"/>
<path d="M1953 6643 c4 -3 1 -13 -6 -22 -11 -14 -10 -14 5 -2 16 12 16 31 1
31 -4 0 -3 -3 0 -7z"/>
<path d="M2477 6643 c-5 -12 -2 -26 10 -48 7 -11 13 -15 13 -8 0 6 -4 14 -9
18 -6 3 -8 14 -6 25 4 20 0 27 -8 13z"/>
<path d="M2930 6641 c0 -6 4 -13 10 -16 6 -3 7 1 4 9 -7 18 -14 21 -14 7z"/>
<path d="M2065 6619 c-3 -4 2 -6 10 -5 21 3 28 13 10 13 -9 0 -18 -4 -20 -8z"/>
<path d="M2260 6626 c0 -2 8 -10 18 -17 15 -13 16 -12 3 4 -13 16 -21 21 -21
13z"/>
<path d="M2336 6613 c-6 -14 -5 -15 5 -6 7 7 10 15 7 18 -3 3 -9 -2 -12 -12z"/>
<path d="M2388 6618 c10 -13 10 -17 0 -21 -7 -2 -1 -4 15 -4 15 0 27 4 27 10
0 6 -3 7 -7 4 -3 -4 -16 1 -27 10 -17 15 -18 15 -8 1z"/>
<path d="M2633 6615 c0 -7 6 -11 14 -8 7 3 13 6 13 8 0 2 -6 5 -13 8 -8 3 -14
-1 -14 -8z"/>
<path d="M2790 6620 c-9 -6 -10 -10 -3 -10 6 0 15 5 18 10 8 12 4 12 -15 0z"/>
<path d="M2816 6613 c-6 -14 -5 -15 5 -6 7 7 10 15 7 18 -3 3 -9 -2 -12 -12z"/>
<path d="M2864 6622 c4 -3 14 -7 22 -8 9 -1 13 0 10 4 -4 3 -14 7 -22 8 -9 1
-13 0 -10 -4z"/>
<path d="M1915 6609 c-4 -6 -5 -12 -2 -15 2 -3 7 2 10 11 7 17 1 20 -8 4z"/>
<path d="M2006 6603 c-6 -14 -5 -15 5 -6 7 7 10 15 7 18 -3 3 -9 -2 -12 -12z"/>
<path d="M2740 6606 c7 -7 13 -7 20 0 6 6 3 10 -10 10 -13 0 -16 -4 -10 -10z"/>
<path d="M2156 6598 c3 -5 10 -6 15 -3 13 9 11 12 -6 12 -8 0 -12 -4 -9 -9z"/>
<path d="M2225 6600 c-4 -7 -2 -17 4 -23 9 -9 11 -8 6 6 -7 18 10 24 18 7 3
-6 4 -5 3 2 -3 16 -23 21 -31 8z"/>
<path d="M2445 6600 c-3 -5 -1 -10 4 -10 6 0 11 5 11 10 0 6 -2 10 -4 10 -3 0
-8 -4 -11 -10z"/>
<path d="M2836 6602 c-2 -4 -1 -14 4 -22 7 -11 9 -9 7 8 -1 24 -3 26 -11 14z"/>
<path d="M1833 6585 c0 -8 4 -15 9 -15 4 0 8 4 8 9 0 6 -4 12 -8 15 -5 3 -9
-1 -9 -9z"/>
<path d="M1974 6585 c36 -19 45 -19 20 0 -10 8 -26 14 -34 15 -8 0 -2 -7 14
-15z"/>
<path d="M2861 6596 c2 -2 15 -9 29 -15 24 -11 24 -11 6 3 -16 13 -49 24 -35
12z"/>
<path d="M1926 6582 c-3 -5 1 -9 9 -9 8 0 12 4 9 9 -3 4 -7 8 -9 8 -2 0 -6 -4
-9 -8z"/>
<path d="M2280 6580 c20 -13 33 -13 25 0 -3 6 -14 10 -23 10 -15 0 -15 -2 -2
-10z"/>
<path d="M2747 6579 c7 -7 15 -10 18 -7 3 3 -2 9 -12 12 -14 6 -15 5 -6 -5z"/>
<path d="M2810 6580 c0 -5 5 -10 11 -10 5 0 7 5 4 10 -3 6 -8 10 -11 10 -2 0
-4 -4 -4 -10z"/>
<path d="M1516 6367 c3 -10 9 -15 12 -12 3 3 0 11 -7 18 -10 9 -11 8 -5 -6z"/>
<path d="M16890 6299 c0 -5 5 -7 10 -4 6 3 10 8 10 11 0 2 -4 4 -10 4 -5 0
-10 -5 -10 -11z"/>
<path d="M16955 6263 c2 -16 9 -29 15 -31 5 -2 7 -9 4 -14 -5 -7 -2 -8 5 -4 9
6 9 12 -2 24 -8 10 -13 25 -12 35 2 9 -1 17 -6 17 -5 0 -7 -12 -4 -27z"/>
<path d="M17050 6260 c0 -5 5 -10 11 -10 5 0 7 5 4 10 -3 6 -8 10 -11 10 -2 0
-4 -4 -4 -10z"/>
<path d="M17100 6260 c-12 -7 -10 -9 7 -7 12 0 19 5 17 9 -6 10 -6 10 -24 -2z"/>
<path d="M16864 6245 c-10 -8 -14 -15 -8 -15 6 0 17 7 24 15 16 19 9 19 -16 0z"/>
<path d="M16905 6239 c-4 -6 -5 -12 -2 -15 2 -3 7 2 10 11 7 17 1 20 -8 4z"/>
<path d="M17016 6233 c-6 -14 -5 -15 5 -6 7 7 10 15 7 18 -3 3 -9 -2 -12 -12z"/>
<path d="M16876 6223 c-4 -5 -16 -8 -27 -8 -20 0 -27 -20 -6 -20 6 0 18 -4 24
-8 9 -6 11 -3 6 10 -6 16 -4 16 16 -2 13 -11 34 -20 48 -20 23 -1 23 0 6 13
-10 7 -17 21 -15 30 2 14 1 15 -7 2 -7 -9 -6 -19 1 -27 6 -7 6 -13 1 -13 -12
0 -43 37 -36 44 4 3 4 6 1 6 -2 0 -8 -3 -12 -7z"/>
<path d="M17038 6213 c7 -3 16 -2 19 1 4 3 -2 6 -13 5 -11 0 -14 -3 -6 -6z"/>
<path d="M17080 6206 c7 -7 13 -7 20 0 6 6 3 10 -10 10 -13 0 -16 -4 -10 -10z"/>
<path d="M17395 6209 c-4 -6 -5 -12 -2 -15 2 -3 7 2 10 11 7 17 1 20 -8 4z"/>
<path d="M17010 6200 c0 -5 5 -10 11 -10 5 0 7 5 4 10 -3 6 -8 10 -11 10 -2 0
-4 -4 -4 -10z"/>
<path d="M17156 6195 c-9 -26 -7 -32 5 -12 6 10 9 21 6 23 -2 3 -7 -2 -11 -11z"/>
<path d="M17256 6193 c-6 -14 -5 -15 5 -6 7 7 10 15 7 18 -3 3 -9 -2 -12 -12z"/>
<path d="M17290 6200 c0 -5 5 -10 11 -10 5 0 7 5 4 10 -3 6 -8 10 -11 10 -2 0
-4 -4 -4 -10z"/>
<path d="M17115 6189 c-4 -6 -5 -12 -2 -15 2 -3 7 2 10 11 7 17 1 20 -8 4z"/>
<path d="M17186 6178 c3 -5 10 -6 15 -3 13 9 11 12 -6 12 -8 0 -12 -4 -9 -9z"/>
<path d="M17559 6178 c-5 -18 -6 -38 -1 -34 7 8 12 36 6 36 -2 0 -4 -1 -5 -2z"/>
<path d="M17275 6160 c3 -5 8 -10 11 -10 2 0 4 5 4 10 0 6 -5 10 -11 10 -5 0
-7 -4 -4 -10z"/>
<path d="M17360 6149 c0 -5 -4 -8 -9 -4 -5 3 -12 2 -15 -3 -2 -4 6 -8 19 -8
15 0 21 5 18 13 -6 16 -13 17 -13 2z"/>
<path d="M17269 6133 c7 -15 8 -24 1 -28 -15 -9 -3 -24 18 -20 9 1 23 -2 30
-8 8 -6 12 -6 12 2 0 6 5 11 11 11 5 0 7 -5 3 -12 -4 -7 -3 -8 4 -4 6 4 9 13
5 21 -4 11 -1 13 10 9 9 -3 13 -12 11 -19 -7 -17 12 -29 22 -14 4 7 -3 20 -16
31 -22 18 -24 18 -43 1 -19 -17 -20 -17 -49 17 -17 19 -25 25 -19 13z m25 -31
c3 -5 -1 -9 -9 -9 -8 0 -12 4 -9 9 3 4 7 8 9 8 2 0 6 -4 9 -8z"/>
<path d="M17294 6138 c-4 -7 -3 -8 4 -4 7 4 12 1 12 -8 0 -9 5 -16 10 -16 7 0
7 6 0 20 -12 23 -16 24 -26 8z"/>
<path d="M17399 6134 c-11 -14 -10 -19 10 -35 23 -19 23 -20 5 -35 -10 -9 -14
-13 -7 -10 6 4 14 2 17 -3 4 -5 18 -8 32 -5 19 3 24 1 18 -8 -4 -7 -4 -10 1
-6 4 4 13 3 20 -2 7 -6 19 -4 34 6 l22 16 -23 16 c-13 9 -27 16 -32 14 -5 -2
-6 4 -3 12 4 11 0 14 -14 11 -15 -3 -19 0 -15 10 3 8 1 17 -3 19 -5 3 -8 -5
-7 -17 1 -12 7 -21 14 -19 7 1 12 -5 12 -14 0 -10 6 -14 14 -11 14 6 36 -10
36 -26 0 -5 -7 -4 -15 3 -9 7 -18 10 -22 7 -3 -4 -12 -2 -20 4 -10 9 -17 8
-28 -1 -9 -8 -15 -9 -15 -2 0 6 5 14 11 18 8 4 2 12 -15 21 -30 16 -33 28 -8
42 9 6 12 11 6 11 -6 0 -18 -7 -25 -16z m111 -94 c0 -5 -2 -10 -4 -10 -3 0 -8
5 -11 10 -3 6 -1 10 4 10 6 0 11 -4 11 -10z"/>
<path d="M17520 6126 c0 -2 8 -10 18 -17 15 -13 16 -12 3 4 -13 16 -21 21 -21
13z"/>
<path d="M17885 6080 c10 -11 20 -20 23 -20 3 0 -3 9 -13 20 -10 11 -20 20
-23 20 -3 0 3 -9 13 -20z"/>
<path d="M17545 6080 c-3 -5 -2 -10 4 -10 5 0 13 5 16 10 3 6 2 10 -4 10 -5 0
-13 -4 -16 -10z"/>
<path d="M17760 6080 c8 -5 20 -10 25 -10 6 0 3 5 -5 10 -8 5 -19 10 -25 10
-5 0 -3 -5 5 -10z"/>
<path d="M17575 6069 c-4 -6 3 -13 15 -16 16 -4 18 -8 8 -14 -7 -5 -8 -9 -3
-9 6 0 17 4 24 9 12 8 9 11 -12 16 -15 4 -24 11 -21 16 3 5 3 9 0 9 -3 0 -8
-5 -11 -11z"/>
<path d="M17657 6045 c-4 -8 -13 -15 -22 -15 -8 0 -15 -4 -15 -10 0 -5 -8 -7
-17 -4 -15 5 -15 4 -3 -4 8 -6 17 -9 21 -6 4 2 9 1 12 -3 2 -5 2 -2 0 5 -1 8
3 12 9 10 7 -3 13 -10 13 -15 0 -6 4 -15 8 -20 5 -4 8 -3 7 2 -5 24 1 27 15 9
12 -16 16 -17 24 -5 14 21 2 45 -15 30 -15 -12 -19 0 -6 17 4 5 0 2 -9 -8 -19
-20 -35 -12 -17 9 6 7 9 16 6 19 -3 3 -8 -2 -11 -11z m53 -39 c0 -3 -4 -8 -10
-11 -5 -3 -10 -1 -10 4 0 6 5 11 10 11 6 0 10 -2 10 -4z"/>
<path d="M17833 6047 c0 -8 6 -14 14 -14 9 0 10 4 2 14 -6 7 -12 13 -14 13 -1
0 -2 -6 -2 -13z"/>
<path d="M17766 6038 c3 -5 9 -7 12 -4 3 3 12 0 21 -6 13 -10 14 -10 4 2 -15
16 -46 23 -37 8z"/>
<path d="M17737 6004 c8 -13 12 -28 8 -34 -4 -6 -3 -10 2 -9 4 1 11 0 16 -1 4
-1 12 -4 17 -5 6 -1 11 -3 13 -5 4 -3 49 -10 95 -14 25 -2 42 0 42 7 0 6 -3 7
-6 4 -4 -3 -16 -2 -27 4 -14 8 -18 8 -13 0 4 -6 3 -11 -3 -11 -6 0 -15 9 -21
20 -9 16 -15 18 -29 10 -15 -7 -22 -5 -35 13 -12 17 -14 17 -9 4 5 -17 4 -18
-15 -6 -23 15 -37 39 -23 39 5 0 12 -5 14 -10 3 -6 4 -5 3 2 -1 7 -12 13 -24
14 -19 1 -20 0 -5 -22z m116 -48 c4 -10 1 -13 -8 -9 -8 3 -12 9 -9 14 7 12 11
11 17 -5z"/>
<path d="M17879 6013 c-13 -16 -12 -17 4 -4 9 7 17 15 17 17 0 8 -8 3 -21 -13z"/>
<path d="M18014 6005 c0 -13 3 -22 7 -19 8 4 6 30 -2 38 -3 3 -5 -5 -5 -19z"/>
<path d="M17813 6014 c-7 -3 -9 -12 -6 -20 8 -21 19 -17 19 6 0 11 0 20 -1 19
0 0 -5 -3 -12 -5z"/>
<path d="M17848 6010 c-3 -8 2 -20 11 -27 20 -15 31 -16 31 -2 0 5 -5 7 -10 4
-6 -3 -14 4 -19 16 -6 17 -9 19 -13 9z"/>
<path d="M18055 5971 c-3 -6 -14 -8 -25 -6 -11 2 -20 -1 -20 -6 0 -5 6 -9 13
-8 27 3 38 -1 31 -13 -4 -7 -3 -10 1 -5 5 4 9 16 10 27 2 22 -1 25 -10 11z"/>
<path d="M17977 5959 c7 -7 15 -10 18 -7 3 3 -2 9 -12 12 -14 6 -15 5 -6 -5z"/>
<path d="M18116 5938 c3 -4 0 -8 -6 -8 -6 0 -8 -4 -5 -10 3 -5 11 -10 17 -10
6 0 8 3 5 7 -4 3 -2 11 3 18 7 8 5 12 -5 12 -8 0 -12 -4 -9 -9z"/>
<path d="M18155 5941 c-3 -5 0 -13 7 -18 16 -10 42 -14 33 -5 -4 4 -12 7 -18
7 -7 1 -11 6 -9 13 2 14 -4 16 -13 3z"/>
<path d="M18004 5928 c3 -10 0 -18 -6 -18 -7 0 -6 -5 2 -15 7 -9 15 -13 18
-11 2 3 14 1 26 -5 20 -9 20 -9 3 4 -12 10 -14 16 -6 19 10 3 9 8 0 24 -9 13
-11 14 -7 2 2 -9 -3 -22 -11 -30 -14 -11 -16 -11 -11 3 3 9 2 22 -4 30 -8 11
-9 10 -4 -3z"/>
<path d="M18294 5916 c1 -8 5 -18 8 -22 4 -3 5 1 4 10 -1 8 -5 18 -8 22 -4 3
-5 -1 -4 -10z"/>
<path d="M18148 5898 c5 -5 16 -8 23 -6 8 3 3 7 -10 11 -17 4 -21 3 -13 -5z"/>
<path d="M18126 5885 c4 -8 11 -15 16 -15 6 0 5 6 -2 15 -7 8 -14 15 -16 15
-2 0 -1 -7 2 -15z"/>
<path d="M18210 5885 c-9 -11 -9 -15 -1 -15 7 0 9 -5 5 -12 -4 -7 -3 -10 1 -5
8 6 16 47 10 47 -2 0 -8 -7 -15 -15z"/>
<path d="M18230 5840 c0 -5 5 -10 10 -10 6 0 10 5 10 10 0 6 -4 10 -10 10 -5
0 -10 -4 -10 -10z"/>
<path d="M18210 5826 c0 -12 24 -56 30 -56 4 0 10 -8 12 -18 3 -10 12 -19 21
-19 9 0 14 4 11 9 -3 5 -9 6 -14 3 -4 -3 -11 6 -14 20 -4 14 -11 25 -16 25 -6
0 -10 6 -10 14 0 8 -4 18 -10 21 -5 3 -10 4 -10 1z"/>
<path d="M18260 5806 c0 -2 7 -6 15 -10 8 -3 15 -1 15 4 0 6 -7 10 -15 10 -8
0 -15 -2 -15 -4z"/>
<path d="M18295 5769 c-4 -6 -5 -12 -2 -15 2 -3 7 2 10 11 7 17 1 20 -8 4z"/>
<path d="M18345 5760 c-3 -6 1 -7 9 -4 18 7 21 14 7 14 -6 0 -13 -4 -16 -10z"/>
<path d="M18206 5719 c-15 -16 -32 -27 -36 -24 -4 2 -16 -5 -26 -17 -11 -12
-14 -19 -9 -15 6 3 17 2 25 -4 11 -6 11 -9 2 -9 -10 0 -10 -4 0 -19 12 -19 12
-19 26 0 7 11 18 17 23 14 13 -9 11 -25 -3 -22 -6 1 -14 -6 -16 -15 -2 -10 1
-18 7 -18 6 0 7 7 4 17 -4 10 -2 14 5 9 16 -10 25 13 12 29 -10 12 -10 19 1
33 7 9 15 19 16 21 2 3 10 -4 19 -15 14 -18 15 -18 4 4 -9 18 -16 21 -33 16
-19 -6 -20 -5 -8 9 7 9 17 14 22 11 5 -3 6 2 3 10 -3 9 -7 15 -8 15 0 -1 -14
-14 -30 -30z m6 -34 c0 -5 -6 -11 -13 -14 -7 -2 -9 1 -4 9 5 9 4 11 -4 6 -9
-6 -9 -11 -1 -21 7 -9 6 -16 -6 -26 -13 -11 -15 -11 -14 2 4 28 0 40 -12 33
-7 -4 -8 -3 -4 5 4 6 11 9 16 6 5 -3 12 -1 15 5 8 13 27 9 27 -5z"/>
<path d="M18268 5713 c7 -3 16 -2 19 1 4 3 -2 6 -13 5 -11 0 -14 -3 -6 -6z"/>
<path d="M18353 5685 c0 -8 4 -15 9 -15 4 0 8 4 8 9 0 6 -4 12 -8 15 -5 3 -9
-1 -9 -9z"/>
<path d="M18284 5679 c-3 -6 -2 -15 3 -20 5 -5 9 -1 9 11 0 23 -2 24 -12 9z"/>
<path d="M18320 5680 c-8 -5 -12 -12 -9 -15 4 -3 12 1 19 10 14 17 11 19 -10
5z"/>
<path d="M18230 5660 c0 -5 5 -10 10 -10 6 0 10 5 10 10 0 6 -4 10 -10 10 -5
0 -10 -4 -10 -10z"/>
<path d="M18037 5644 c-7 -8 11 -34 23 -34 11 0 5 33 -6 37 -6 2 -13 0 -17 -3z"/>
<path d="M18260 5639 c0 -5 5 -7 10 -4 6 3 10 8 10 11 0 2 -4 4 -10 4 -5 0
-10 -5 -10 -11z"/>
<path d="M18236 5613 c-6 -14 -5 -15 5 -6 7 7 10 15 7 18 -3 3 -9 -2 -12 -12z"/>
<path d="M17980 5588 l-23 -31 26 19 c15 10 27 25 27 32 0 18 -4 15 -30 -20z"/>
<path d="M17887 5582 c-21 -23 -22 -39 -2 -22 8 7 15 9 15 4 0 -4 5 -3 12 4 8
8 9 15 2 22 -7 7 -16 5 -27 -8z"/>
<path d="M17846 5571 c-11 -12 -13 -21 -7 -25 5 -4 15 3 21 15 15 28 7 34 -14
10z"/>
<path d="M18174 5582 c3 -5 0 -13 -6 -15 -9 -4 -10 -6 -1 -6 17 -1 25 16 12
25 -7 4 -9 3 -5 -4z"/>
<path d="M18130 5560 c0 -5 5 -10 10 -10 6 0 10 5 10 10 0 6 -4 10 -10 10 -5
0 -10 -4 -10 -10z"/>
<path d="M18195 5551 c-3 -5 -2 -12 3 -15 5 -3 9 1 9 9 0 17 -3 19 -12 6z"/>
<path d="M18093 5535 c-3 -9 -3 -18 -1 -21 3 -3 8 4 11 16 6 23 -1 27 -10 5z"/>
<path d="M18026 5523 c-6 -14 -5 -15 5 -6 7 7 10 15 7 18 -3 3 -9 -2 -12 -12z"/>
<path d="M18115 5529 c-4 -6 -5 -12 -2 -15 2 -3 7 2 10 11 7 17 1 20 -8 4z"/>
<path d="M18047 5499 c7 -7 15 -10 18 -7 3 3 -2 9 -12 12 -14 6 -15 5 -6 -5z"/>
<path d="M17649 5483 c-13 -16 -12 -17 4 -4 9 7 17 15 17 17 0 8 -8 3 -21 -13z"/>
<path d="M17885 5491 c-3 -5 0 -13 6 -17 7 -4 9 -3 5 4 -3 5 0 13 6 15 9 4 10
6 1 6 -6 1 -14 -3 -18 -8z"/>
<path d="M17952 5474 c2 -14 9 -31 18 -37 12 -10 13 -10 4 3 -6 8 -10 25 -9
38 1 12 -2 22 -7 22 -4 0 -7 -12 -6 -26z"/>
<path d="M17590 5480 c0 -5 5 -10 10 -10 6 0 10 5 10 10 0 6 -4 10 -10 10 -5
0 -10 -4 -10 -10z"/>
<path d="M17546 5472 c-3 -5 1 -9 9 -9 8 0 12 4 9 9 -3 4 -7 8 -9 8 -2 0 -6
-4 -9 -8z"/>
<path d="M17830 5471 c0 -5 7 -11 14 -14 10 -4 13 -1 9 9 -6 15 -23 19 -23 5z"/>
<path d="M17907 5467 c-3 -7 3 -13 14 -13 13 0 15 3 7 13 -6 7 -12 13 -13 13
-2 0 -5 -6 -8 -13z"/>
<path d="M18115 5470 c-4 -6 -11 -7 -17 -4 -7 4 -8 2 -4 -5 6 -9 11 -9 22 0
14 11 18 19 10 19 -3 0 -8 -5 -11 -10z"/>
<path d="M18235 5460 c-3 -5 -1 -10 4 -10 6 0 11 5 11 10 0 6 -2 10 -4 10 -3
0 -8 -4 -11 -10z"/>
<path d="M17386 5428 c3 -5 10 -6 15 -3 13 9 11 12 -6 12 -8 0 -12 -4 -9 -9z"/>
<path d="M17694 5422 c7 -12 -7 -16 -54 -14 -18 1 -21 -1 -11 -7 16 -10 61 -5
74 8 5 5 3 12 -4 16 -8 5 -10 4 -5 -3z"/>
<path d="M17758 5423 c7 -3 16 -2 19 1 4 3 -2 6 -13 5 -11 0 -14 -3 -6 -6z"/>
<path d="M17795 5422 c3 -3 0 -10 -5 -17 -7 -8 -5 -12 5 -12 8 0 13 3 10 5 -3
3 0 10 5 17 7 8 5 12 -5 12 -8 0 -13 -3 -10 -5z"/>
<path d="M17731 5404 c0 -11 3 -14 6 -6 3 7 2 16 -1 19 -3 4 -6 -2 -5 -13z"/>
<path d="M17153 5393 c10 -17 -3 -45 -19 -39 -7 3 -16 1 -20 -5 -4 -7 -10 -6
-19 1 -10 8 -15 8 -20 0 -5 -8 -11 -8 -20 0 -9 7 -16 6 -25 -5 -11 -14 -14
-13 -26 2 -12 17 -15 16 -39 -11 -18 -22 -22 -32 -14 -42 8 -10 6 -13 -9 -11
-17 1 -19 4 -10 21 8 15 7 22 -8 33 -9 7 -20 10 -23 7 -3 -3 3 -12 13 -20 11
-8 15 -14 10 -14 -5 0 -10 -9 -11 -20 -1 -16 4 -19 28 -16 29 3 48 -8 29 -17
-6 -3 -5 -4 2 -3 7 2 13 9 13 16 0 7 7 15 15 18 8 3 12 1 8 -3 -4 -5 -3 -14 3
-22 9 -10 7 -13 -7 -13 -16 0 -16 -2 -4 -10 19 -12 33 9 18 27 -8 10 -5 13 13
11 13 -2 24 3 25 10 3 22 4 23 18 10 7 -7 12 -18 9 -24 -2 -7 0 -15 6 -19 7
-4 8 0 4 11 -5 13 -3 15 8 9 12 -8 12 -6 1 8 -10 12 -11 21 -3 34 6 10 11 14
11 9 0 -5 7 -3 15 4 13 11 14 10 9 -4 -3 -9 -10 -16 -15 -16 -5 0 -9 -5 -9
-10 0 -6 8 -5 19 2 11 7 17 16 14 22 -4 5 1 7 11 3 10 -4 20 -7 22 -7 2 0 4
-5 4 -11 0 -5 -3 -8 -8 -5 -4 2 -15 -2 -25 -9 -15 -11 -15 -13 -2 -18 8 -4 14
-1 12 6 -1 7 4 11 11 9 7 -1 15 5 18 13 3 8 10 12 15 9 5 -3 9 0 9 6 0 7 7 9
16 6 8 -3 13 -2 11 2 -6 8 13 26 31 30 17 3 15 -15 -3 -22 -18 -6 -20 -26 -3
-26 6 0 9 3 6 6 -4 3 1 13 10 23 15 15 20 16 42 3 21 -13 20 -11 -4 10 -19 16
-26 29 -21 37 6 10 3 11 -13 2 -12 -6 -23 -7 -26 -2 -5 8 -27 8 -46 1 -15 -6
-37 -4 -49 5 -11 7 -13 7 -8 -2z m105 -13 c1 -2 6 -3 11 -4 5 0 12 -4 16 -8 4
-3 -1 -5 -11 -4 -10 2 -33 -8 -52 -20 -26 -18 -39 -21 -53 -14 -16 9 -17 40
-2 40 3 0 3 -6 0 -14 -4 -11 0 -13 16 -10 12 3 28 6 35 6 6 1 9 4 6 7 -9 10
-28 8 -37 -4 -5 -6 -7 -4 -4 5 2 8 9 15 15 15 5 0 13 3 17 7 5 5 35 4 43 -2z
m-268 -45 c-11 -13 -10 -15 6 -12 11 1 25 6 32 10 6 5 17 5 22 2 6 -4 17 -2
25 5 7 6 16 7 18 3 8 -13 -9 -37 -21 -29 -6 3 -13 2 -17 -4 -3 -5 -11 -10 -17
-10 -7 0 -6 6 2 15 7 9 8 15 2 15 -18 0 -21 -29 -4 -39 23 -14 6 -14 -19 0
-11 5 -17 15 -13 22 3 7 -3 2 -13 -11 -15 -18 -21 -20 -31 -10 -9 9 -7 17 10
35 24 26 38 32 18 8z"/>
<path d="M17226 5368 c3 -5 10 -6 15 -3 13 9 11 12 -6 12 -8 0 -12 -4 -9 -9z"/>
<path d="M16965 5311 c-3 -5 -2 -12 3 -15 5 -3 9 1 9 9 0 17 -3 19 -12 6z"/>
<path d="M17536 5382 c-2 -4 0 -14 6 -22 8 -12 9 -12 5 2 -3 9 -1 19 6 22 9 3
9 5 0 5 -6 1 -14 -3 -17 -7z"/>
<path d="M17436 5354 c-24 -24 -19 -30 7 -8 12 10 24 20 26 21 2 2 -1 3 -7 3
-6 0 -18 -7 -26 -16z"/>
<path d="M17513 5355 c0 -8 4 -12 9 -9 5 3 6 10 3 15 -9 13 -12 11 -12 -6z"/>
<path d="M17654 5356 c1 -8 5 -18 8 -22 4 -3 5 1 4 10 -1 8 -5 18 -8 22 -4 3
-5 -1 -4 -10z"/>
<path d="M17615 5351 c-3 -5 -2 -12 3 -15 5 -3 9 1 9 9 0 17 -3 19 -12 6z"/>
<path d="M17473 5330 c19 -25 20 -26 14 -8 -3 9 -1 19 6 21 7 3 2 4 -10 4 -18
-1 -20 -4 -10 -17z"/>
<path d="M17346 5322 c-3 -5 1 -9 9 -9 8 0 15 4 15 9 0 4 -4 8 -9 8 -6 0 -12
-4 -15 -8z"/>
<path d="M17215 5299 c-4 -6 -5 -12 -2 -15 2 -3 7 2 10 11 7 17 1 20 -8 4z"/>
<path d="M17279 5308 c-6 -21 -6 -39 1 -43 5 -3 7 3 6 12 -2 10 2 21 8 25 8 5
7 8 -1 8 -7 0 -13 -1 -14 -2z"/>
<path d="M17400 5300 c-9 -6 -10 -10 -3 -10 6 0 15 5 18 10 8 12 4 12 -15 0z"/>
<path d="M16841 5283 c-8 -14 -10 -15 -11 -3 0 13 -1 13 -10 0 -9 -13 -10 -13
-10 0 -1 9 -6 5 -15 -10 -16 -30 -17 -30 -42 -8 -18 16 -19 16 -31 -3 -7 -11
-17 -17 -22 -14 -6 3 -10 2 -10 -4 0 -5 9 -9 19 -8 11 0 17 5 14 10 -3 5 0 8
8 5 8 -3 14 -13 14 -23 0 -9 11 -24 25 -32 l25 -15 -25 20 c-24 20 -24 22 -6
39 18 17 18 17 11 -6 -5 -16 -4 -21 4 -17 6 4 11 14 11 22 0 8 5 14 11 14 5 0
8 -4 5 -8 -2 -4 5 -9 17 -9 12 -1 23 -7 25 -13 2 -5 8 -10 14 -10 7 0 7 4 0
13 -6 6 -9 27 -8 45 2 37 1 39 -13 15z m-11 -25 c0 -5 6 -6 13 -2 9 5 9 4 -1
-7 -10 -11 -15 -11 -28 2 -13 14 -13 16 1 16 8 0 15 -4 15 -9z"/>
<path d="M17190 5281 c0 -6 4 -13 10 -16 6 -3 7 1 4 9 -7 18 -14 21 -14 7z"/>
<path d="M16670 5266 c14 -14 42 -17 37 -3 -2 6 -13 11 -25 12 -16 1 -19 -2
-12 -9z"/>
<path d="M17059 5268 c-3 -6 -6 -48 -4 -48 1 0 9 8 16 17 12 14 12 16 0 8 -11
-6 -13 -4 -8 8 5 13 1 25 -4 15z"/>
<path d="M16925 5251 c-3 -5 0 -13 6 -17 7 -4 9 -3 5 4 -3 5 0 13 6 15 9 4 10
6 1 6 -6 1 -14 -3 -18 -8z"/>
<path d="M16870 5241 c0 -5 7 -15 17 -22 15 -13 15 -12 4 9 -12 23 -21 28 -21
13z"/>
<path d="M16947 5226 c-4 -10 -1 -13 8 -9 8 3 12 9 9 14 -7 12 -11 11 -17 -5z"/>
<path d="M17130 5219 c0 -5 5 -7 10 -4 6 3 10 8 10 11 0 2 -4 4 -10 4 -5 0
-10 -5 -10 -11z"/>
<path d="M16810 5211 c0 -7 -5 -9 -12 -5 -7 5 -8 3 -3 -5 5 -9 10 -10 18 -2 6
6 8 14 4 18 -4 3 -7 1 -7 -6z"/>
<path d="M16909 5203 c-13 -16 -12 -17 4 -4 9 7 17 15 17 17 0 8 -8 3 -21 -13z"/>
<path d="M16986 5202 c-3 -5 1 -9 9 -9 8 0 12 4 9 9 -3 4 -7 8 -9 8 -2 0 -6
-4 -9 -8z"/>
<path d="M16670 5196 c0 -3 9 -10 20 -16 11 -6 20 -8 20 -6 0 3 -9 10 -20 16
-11 6 -20 8 -20 6z"/>
<path d="M16831 5173 c7 -12 15 -20 18 -17 3 2 -3 12 -13 22 -17 16 -18 16 -5
-5z"/>
<path d="M16588 5163 c7 -3 16 -2 19 1 4 3 -2 6 -13 5 -11 0 -14 -3 -6 -6z"/>
<path d="M16870 5159 c0 -5 5 -7 10 -4 6 3 10 8 10 11 0 2 -4 4 -10 4 -5 0
-10 -5 -10 -11z"/>
<path d="M16533 5135 c0 -8 4 -12 9 -9 5 3 6 10 3 15 -9 13 -12 11 -12 -6z"/>
<path d="M16635 5140 c27 -12 43 -12 25 0 -8 5 -22 9 -30 9 -10 0 -8 -3 5 -9z"/>
<path d="M16810 5146 c0 -2 7 -7 16 -10 8 -3 12 -2 9 4 -6 10 -25 14 -25 6z"/>
<path d="M16286 5110 c-14 -41 -14 -57 0 -57 10 0 11 4 3 13 -15 18 -3 34 21
29 11 -2 20 1 20 7 0 5 -6 8 -14 5 -9 -4 -16 1 -18 11 -3 13 -6 11 -12 -8z"/>
<path d="M16416 5114 c-5 -14 -4 -15 9 -4 17 14 19 20 6 20 -5 0 -12 -7 -15
-16z"/>
<path d="M16475 5120 c-3 -5 -1 -10 4 -10 6 0 11 5 11 10 0 6 -2 10 -4 10 -3
0 -8 -4 -11 -10z"/>
<path d="M16447 5099 c7 -7 15 -10 18 -7 3 3 -2 9 -12 12 -14 6 -15 5 -6 -5z"/>
<path d="M16595 5089 c-4 -6 -5 -12 -2 -15 2 -3 7 2 10 11 7 17 1 20 -8 4z"/>
<path d="M16234 5081 c4 -5 1 -11 -6 -13 -7 -3 -3 -7 10 -10 19 -5 20 -4 11
13 -5 10 -12 19 -15 19 -3 0 -3 -4 0 -9z"/>
<path d="M16346 5078 c3 -5 10 -6 15 -3 13 9 11 12 -6 12 -8 0 -12 -4 -9 -9z"/>
<path d="M16195 5069 c-4 -6 -5 -12 -2 -15 2 -3 7 2 10 11 7 17 1 20 -8 4z"/>
<path d="M16450 5059 c0 -5 5 -7 10 -4 6 3 10 8 10 11 0 2 -4 4 -10 4 -5 0
-10 -5 -10 -11z"/>
<path d="M16050 5040 c0 -5 5 -10 10 -10 6 0 10 5 10 10 0 6 -4 10 -10 10 -5
0 -10 -4 -10 -10z"/>
<path d="M16135 5041 c-3 -5 -2 -12 3 -15 5 -3 9 1 9 9 0 17 -3 19 -12 6z"/>
<path d="M16670 5040 c0 -5 5 -10 11 -10 5 0 7 5 4 10 -3 6 -8 10 -11 10 -2 0
-4 -4 -4 -10z"/>
<path d="M16076 5022 c-3 -5 1 -9 9 -9 8 0 12 4 9 9 -3 4 -7 8 -9 8 -2 0 -6
-4 -9 -8z"/>
<path d="M16006 4998 c3 -5 10 -6 15 -3 13 9 11 12 -6 12 -8 0 -12 -4 -9 -9z"/>
<path d="M16119 4993 c-13 -16 -12 -17 4 -4 16 13 21 21 13 21 -2 0 -10 -8
-17 -17z"/>
<path d="M1573 4965 c0 -8 4 -12 9 -9 5 3 6 10 3 15 -9 13 -12 11 -12 -6z"/>
<path d="M2520 4963 c0 -6 8 -17 18 -24 16 -13 16 -13 2 6 -8 11 -16 22 -17
24 -2 2 -3 0 -3 -6z"/>
<path d="M1820 4945 c-7 -9 -8 -15 -2 -15 5 0 12 7 16 15 3 8 4 15 2 15 -2 0
-9 -7 -16 -15z"/>
<path d="M3006 4952 c-3 -5 1 -9 9 -9 8 0 12 4 9 9 -3 4 -7 8 -9 8 -2 0 -6 -4
-9 -8z"/>
<path d="M3293 4954 c3 -6 -3 -18 -14 -27 -16 -14 -17 -21 -9 -37 6 -11 13
-20 16 -20 3 0 2 5 -1 10 -3 6 -1 10 4 10 6 0 11 4 11 10 0 5 -8 6 -17 3 -16
-6 -16 -5 -4 11 14 17 16 17 28 0 7 -9 10 -21 6 -27 -3 -6 -1 -7 5 -3 5 3 12
0 15 -6 2 -7 8 -9 13 -5 5 5 1 13 -9 18 -25 14 -22 32 3 19 11 -6 20 -7 20 -3
0 4 4 1 10 -7 6 -9 5 -17 -1 -21 -7 -4 -4 -9 6 -12 9 -4 14 -3 10 3 -3 6 1 13
9 16 8 3 18 14 21 25 4 11 10 17 14 15 4 -3 8 1 8 8 0 9 -9 13 -24 10 -13 -3
-23 1 -23 7 0 8 -4 8 -15 -1 -8 -7 -15 -9 -15 -6 0 4 -8 3 -17 -3 -13 -7 -23
-5 -37 7 -11 9 -17 12 -13 6z m119 -29 c-16 -30 -25 -36 -33 -23 -5 7 -13 14
-19 14 -5 1 -16 2 -22 3 -10 1 -10 3 -1 9 18 11 82 9 75 -3z"/>
<path d="M1730 4941 c0 -6 4 -13 10 -16 6 -3 7 1 4 9 -7 18 -14 21 -14 7z"/>
<path d="M1860 4942 c0 -8 -5 -10 -12 -6 -8 5 -8 1 2 -12 8 -10 15 -20 16 -22
1 -2 4 3 7 11 3 8 1 20 -4 28 -7 11 -9 11 -9 1z"/>
<path d="M2095 4941 c10 -9 44 -11 49 -3 3 5 -8 8 -24 8 -17 0 -27 -2 -25 -5z"/>
<path d="M2465 4940 c-3 -6 1 -7 9 -4 18 7 21 14 7 14 -6 0 -13 -4 -16 -10z"/>
<path d="M3081 4939 c10 -6 11 -9 2 -9 -7 0 -13 -7 -13 -15 0 -8 5 -15 12 -15
6 0 8 3 5 7 -10 10 13 32 28 27 7 -3 15 -2 18 3 3 4 -11 9 -30 9 -23 1 -30 -1
-22 -7z"/>
<path d="M3450 4935 c0 -6 5 -16 10 -21 6 -6 12 -21 15 -34 2 -12 7 -25 9 -27
9 -9 3 42 -6 54 -5 6 -5 14 1 17 5 4 13 -3 16 -15 6 -19 7 -20 20 -2 11 15 11
19 -3 28 -24 13 -62 14 -62 0z m58 -20 c-3 -3 -9 2 -12 12 -6 14 -5 15 5 6 7
-7 10 -15 7 -18z"/>
<path d="M1793 4918 c1 -16 5 -28 9 -28 10 0 9 9 -2 35 -8 17 -8 16 -7 -7z"/>
<path d="M1633 4915 c0 -8 4 -12 9 -9 5 3 6 10 3 15 -9 13 -12 11 -12 -6z"/>
<path d="M1830 4913 c5 -2 8 -9 4 -14 -3 -5 0 -9 6 -9 15 0 7 23 -8 26 -7 1
-8 0 -2 -3z"/>
<path d="M1880 4900 c-6 -11 -8 -20 -6 -20 3 0 10 9 16 20 6 11 8 20 6 20 -3
0 -10 -9 -16 -20z"/>
<path d="M1735 4900 c3 -5 8 -10 11 -10 2 0 4 5 4 10 0 6 -5 10 -11 10 -5 0
-7 -4 -4 -10z"/>
<path d="M3420 4890 c-6 -12 -9 -24 -6 -28 3 -3 6 0 6 7 0 7 4 9 10 6 6 -3 7
1 4 9 -7 17 11 22 19 6 3 -6 4 -5 3 2 -4 21 -24 20 -36 -2z"/>
<path d="M1895 4880 c-3 -6 1 -7 9 -4 18 7 21 14 7 14 -6 0 -13 -4 -16 -10z"/>
<path d="M2500 4875 c0 -8 2 -15 4 -15 2 0 6 7 10 15 3 8 1 15 -4 15 -6 0 -10
-7 -10 -15z"/>
<path d="M2712 4868 c2 -6 10 -13 16 -14 7 -1 8 0 2 3 -5 2 -8 9 -4 14 3 5 0
9 -6 9 -7 0 -10 -5 -8 -12z"/>
<path d="M2015 4863 c3 -3 0 -11 -5 -18 -7 -8 -5 -12 4 -12 14 0 16 22 3 32
-4 3 -5 2 -2 -2z"/>
<path d="M2055 4859 c-4 -6 -5 -12 -2 -15 2 -3 7 2 10 11 7 17 1 20 -8 4z"/>
<path d="M2190 4860 c-13 -8 -12 -10 3 -10 9 0 17 5 17 10 0 12 -1 12 -20 0z"/>
<path d="M2386 4846 c-12 -19 -13 -27 -3 -32 6 -4 9 -3 4 1 -4 5 0 17 10 27 9
10 14 20 11 23 -3 3 -13 -6 -22 -19z"/>
<path d="M2470 4860 c0 -5 5 -10 10 -10 6 0 10 5 10 10 0 6 -4 10 -10 10 -5 0
-10 -4 -10 -10z"/>
<path d="M2670 4865 c0 -5 5 -17 10 -25 5 -8 10 -10 10 -5 0 6 -5 17 -10 25
-5 8 -10 11 -10 5z"/>
<path d="M2756 4861 c-3 -5 1 -14 9 -21 8 -7 12 -17 8 -24 -3 -6 -2 -7 2 -3
14 12 15 37 2 34 -7 -1 -11 4 -9 11 2 14 -4 16 -12 3z"/>
<path d="M3194 4845 c2 -35 11 -39 12 -4 1 16 -2 29 -6 29 -4 0 -6 -11 -6 -25z"/>
<path d="M3310 4863 c5 -2 8 -9 5 -13 -3 -5 -1 -11 4 -14 5 -4 8 2 7 11 -2 9
-8 18 -15 19 -6 1 -7 0 -1 -3z"/>
<path d="M3453 4863 c4 -3 1 -13 -6 -22 -11 -14 -10 -14 5 -2 16 12 16 31 1
31 -4 0 -3 -3 0 -7z"/>
<path d="M3953 4846 c0 -14 6 -27 14 -30 9 -4 11 -2 6 7 -4 6 -8 18 -9 25 -4
25 -11 23 -11 -2z"/>
<path d="M1941 4853 c-1 -17 16 -25 25 -12 4 7 3 9 -4 5 -5 -3 -13 0 -15 6 -4
9 -6 10 -6 1z"/>
<path d="M2346 4844 c-5 -14 -4 -15 9 -4 17 14 19 20 6 20 -5 0 -12 -7 -15
-16z"/>
<path d="M2595 4849 c-4 -6 -5 -12 -2 -15 2 -3 7 2 10 11 7 17 1 20 -8 4z"/>
<path d="M3843 4850 c-13 -5 -23 -11 -23 -14 0 -7 40 6 46 15 6 10 6 10 -23
-1z"/>
<path d="M4041 4844 c0 -11 3 -14 6 -6 3 7 2 16 -1 19 -3 4 -6 -2 -5 -13z"/>
<path d="M1676 4842 c-3 -5 1 -9 9 -9 8 0 12 4 9 9 -3 4 -7 8 -9 8 -2 0 -6 -4
-9 -8z"/>
<path d="M2237 4835 c-4 -8 -3 -16 1 -19 4 -3 9 4 9 15 2 23 -3 25 -10 4z"/>
<path d="M2434 4835 c3 -23 12 -26 13 -5 1 11 -2 20 -7 20 -4 0 -7 -7 -6 -15z"/>
<path d="M2536 4842 c-3 -4 4 -9 15 -9 23 -2 25 3 4 10 -8 4 -16 3 -19 -1z"/>
<path d="M2700 4846 c0 -2 8 -10 18 -17 15 -13 16 -12 3 4 -13 16 -21 21 -21
13z"/>
<path d="M2855 4840 c3 -5 8 -10 11 -10 2 0 4 5 4 10 0 6 -5 10 -11 10 -5 0
-7 -4 -4 -10z"/>
<path d="M2994 4835 c3 -23 12 -26 13 -5 1 11 -2 20 -7 20 -4 0 -7 -7 -6 -15z"/>
<path d="M3099 4833 c-13 -16 -12 -17 4 -4 16 13 21 21 13 21 -2 0 -10 -8 -17
-17z"/>
<path d="M3150 4841 c0 -6 4 -13 10 -16 6 -3 7 1 4 9 -7 18 -14 21 -14 7z"/>
<path d="M3256 4838 c3 -5 10 -6 15 -3 13 9 11 12 -6 12 -8 0 -12 -4 -9 -9z"/>
<path d="M3561 4836 c-8 -10 -9 -16 -1 -21 6 -4 9 -1 8 7 -2 7 3 12 10 10 8
-1 11 2 7 8 -8 13 -10 13 -24 -4z"/>
<path d="M3917 4843 c-11 -11 -8 -21 9 -27 14 -5 15 -4 5 8 -9 11 -9 15 1 19
7 3 8 6 2 6 -6 1 -14 -2 -17 -6z"/>
<path d="M3873 4827 c0 -8 6 -14 14 -14 9 0 10 4 2 14 -6 7 -12 13 -14 13 -1
0 -2 -6 -2 -13z"/>
<path d="M3990 4829 c0 -5 5 -7 10 -4 6 3 10 8 10 11 0 2 -4 4 -10 4 -5 0 -10
-5 -10 -11z"/>
<path d="M2270 4819 c0 -5 5 -7 10 -4 6 3 10 8 10 11 0 2 -4 4 -10 4 -5 0 -10
-5 -10 -11z"/>
<path d="M2307 4819 c7 -7 15 -10 18 -7 3 3 -2 9 -12 12 -14 6 -15 5 -6 -5z"/>
<path d="M3410 4819 c0 -5 5 -7 10 -4 6 3 10 8 10 11 0 2 -4 4 -10 4 -5 0 -10
-5 -10 -11z"/>
<path d="M1949 4803 c-13 -16 -12 -17 4 -4 16 13 21 21 13 21 -2 0 -10 -8 -17
-17z"/>
<path d="M3030 4799 c0 -5 5 -7 10 -4 6 3 10 8 10 11 0 2 -4 4 -10 4 -5 0 -10
-5 -10 -11z"/>
<path d="M3786 4798 c3 -5 10 -6 15 -3 13 9 11 12 -6 12 -8 0 -12 -4 -9 -9z"/>
<path d="M2195 4781 c-3 -5 -2 -12 3 -15 5 -3 9 1 9 9 0 17 -3 19 -12 6z"/>
<path d="M3635 4780 c-3 -5 -1 -10 4 -10 6 0 11 5 11 10 0 6 -2 10 -4 10 -3 0
-8 -4 -11 -10z"/>
<path d="M3816 4778 c3 -5 10 -6 15 -3 13 9 11 12 -6 12 -8 0 -12 -4 -9 -9z"/>
<path d="M3856 4781 c-3 -5 2 -15 12 -22 15 -12 16 -12 5 2 -7 9 -10 19 -6 22
3 4 4 7 0 7 -3 0 -8 -4 -11 -9z"/>
<path d="M3996 4778 c3 -4 11 -5 19 -1 21 7 19 12 -4 10 -11 0 -18 -5 -15 -9z"/>
<path d="M4055 4780 c3 -5 8 -10 11 -10 2 0 4 5 4 10 0 6 -5 10 -11 10 -5 0
-7 -4 -4 -10z"/>
<path d="M2835 4771 c-3 -5 -2 -12 3 -15 5 -3 9 1 9 9 0 17 -3 19 -12 6z"/>
</g>
</svg>
